<?xml version="1.0" encoding="utf-8"?>
<!-- Generator: Adobe Illustrator 17.0.0, SVG Export Plug-In . SVG Version: 6.00 Build 0)  -->
<!DOCTYPE svg PUBLIC "-//W3C//DTD SVG 1.1//EN" "http://www.w3.org/Graphics/SVG/1.1/DTD/svg11.dtd">
<svg version="1.1" id="Layer_1" xmlns="http://www.w3.org/2000/svg" xmlns:xlink="http://www.w3.org/1999/xlink" x="0px" y="0px"
	 width="400px" height="512px" viewBox="0 0 400 512" style="enable-background:new 0 0 400 512;" xml:space="preserve">
<style type="text/css">
	.st0{fill:url(#SVGID_1_);}
	.st1{clip-path:url(#SVGID_3_);}
	.st2{fill:#E0E000;}
	.st3{fill:#4DC4AD;}
	.st4{opacity:0.12;fill:url(#SVGID_4_);enable-background:new    ;}
	.st5{opacity:0.12;fill:url(#SVGID_5_);enable-background:new    ;}
	.st6{opacity:0.12;fill:url(#SVGID_6_);enable-background:new    ;}
	.st7{fill:url(#SVGID_7_);}
	.st8{fill:url(#SVGID_8_);}
	.st9{opacity:0.25;fill:#0F0FAC;enable-background:new    ;}
	.st10{opacity:0.42;fill:#5C5700;enable-background:new    ;}
	.st11{opacity:0.38;fill:url(#SVGID_9_);enable-background:new    ;}
	.st12{opacity:0.38;fill:url(#SVGID_10_);enable-background:new    ;}
	.st13{fill:url(#SVGID_11_);}
	.st14{fill:url(#SVGID_12_);}
	.st15{fill:url(#SVGID_13_);}
	.st16{fill:url(#SVGID_14_);}
	.st17{opacity:0.7;fill:url(#SVGID_15_);enable-background:new    ;}
	.st18{opacity:0.7;fill:url(#SVGID_16_);enable-background:new    ;}
	.st19{opacity:0.7;fill:url(#SVGID_17_);enable-background:new    ;}
	.st20{fill:url(#SVGID_18_);}
	.st21{opacity:0.37;fill:url(#SVGID_19_);enable-background:new    ;}
	.st22{fill:url(#SVGID_20_);}
	.st23{opacity:0.7;fill:url(#SVGID_21_);enable-background:new    ;}
	.st24{fill:url(#SVGID_22_);}
	.st25{opacity:0.15;fill:url(#SVGID_23_);enable-background:new    ;}
	.st26{fill:url(#SVGID_24_);}
	.st27{opacity:0.13;fill:#0F0FAC;enable-background:new    ;}
	.st28{opacity:0.39;fill:url(#SVGID_25_);enable-background:new    ;}
	.st29{fill:url(#SVGID_26_);}
	.st30{opacity:0.21;fill:url(#SVGID_27_);enable-background:new    ;}
	.st31{opacity:0.21;fill:url(#SVGID_28_);enable-background:new    ;}
</style>
<linearGradient id="SVGID_1_" gradientUnits="userSpaceOnUse" x1="129.3271" y1="638.8293" x2="101.062" y2="59.3934" gradientTransform="matrix(1 0 0 -1 91.04 472.34)">
	<stop  offset="0" style="stop-color:#2C9DFB"/>
	<stop  offset="0.1183" style="stop-color:#4DAFFC"/>
	<stop  offset="0.3257" style="stop-color:#82CCFD"/>
	<stop  offset="0.5059" style="stop-color:#A8E1FE"/>
	<stop  offset="0.65" style="stop-color:#BFEEFF"/>
	<stop  offset="0.7398" style="stop-color:#C8F3FF"/>
</linearGradient>
<rect x="-1" y="-2.8" class="st0" width="401.7" height="513.8"/>
<g>
	<defs>
		<rect id="SVGID_2_" y="325" width="402" height="187"/>
	</defs>
	<clipPath id="SVGID_3_">
		<use xlink:href="#SVGID_2_"  style="overflow:visible;"/>
	</clipPath>
	<g class="st1">
		<path class="st2" d="M458.1,441.8c-1,0.1-2.1,0.3-3.3,0.5c-4.2,0.6-9.3,1.3-14.9,2.1c-11.7,1.7-26.1,3.7-41.5,5.8
			c-8.3,1.2-17,2.4-25.7,3.6c-49.6,6.8-101.8,13.6-112.7,13.6c-21.8,0-132.1,2.7-132.1,2.7l12.3,13.6l156.6,3.3l15.9,0.3l66.7,1.4
			l21,0.4l57.6,1.2V441.8z"/>
		<path class="st3" d="M315.7,477l0.1,0c0,0.7,0,1.1,0,1.1S315.8,477.7,315.7,477z"/>
		
			<linearGradient id="SVGID_4_" gradientUnits="userSpaceOnUse" x1="202.9796" y1="7.3093" x2="363.7719" y2="7.3093" gradientTransform="matrix(1 0 0 -1 91.04 472.34)">
			<stop  offset="0" style="stop-color:#004E05"/>
			<stop  offset="0.4537" style="stop-color:#4E7E06"/>
			<stop  offset="1" style="stop-color:#ACB807"/>
		</linearGradient>
		<path class="st4" d="M454.8,442.3c-57.2,11.7-114.4,44.3-114.4,44.3l-27.6,0.8l-18.7,0.5l2.8-0.8l143.1-42.6
			C445.6,443.6,450.6,442.9,454.8,442.3z"/>
		
			<linearGradient id="SVGID_5_" gradientUnits="userSpaceOnUse" x1="259.151" y1="-0.143" x2="378.6978" y2="-0.143" gradientTransform="matrix(1 0 0 -1 91.04 472.34)">
			<stop  offset="0" style="stop-color:#004E05"/>
			<stop  offset="0.4537" style="stop-color:#4E7E06"/>
			<stop  offset="1" style="stop-color:#ACB807"/>
		</linearGradient>
		<path class="st5" d="M469.7,440.1L469.7,440.1c-31.6,18.1-58.3,39.8-69.3,49c-3.4,2.9-5.3,4.6-5.3,4.6l-45,11.1l29.2-16.2
			l87.1-48.1C468.6,440.3,469.7,440.1,469.7,440.1z"/>
		
			<linearGradient id="SVGID_6_" gradientUnits="userSpaceOnUse" x1="145.6744" y1="4.7107" x2="307.3655" y2="4.7107" gradientTransform="matrix(1 0 0 -1 91.04 472.34)">
			<stop  offset="0" style="stop-color:#004E05"/>
			<stop  offset="0.4537" style="stop-color:#4E7E06"/>
			<stop  offset="1" style="stop-color:#ACB807"/>
		</linearGradient>
		<path class="st6" d="M398.4,450.2C331,463.4,272.3,485,272.3,485l-35.6-4.3l136-27C381.4,452.6,390.1,451.4,398.4,450.2z"/>
		<g>
			
				<linearGradient id="SVGID_7_" gradientUnits="userSpaceOnUse" x1="198.9599" y1="-132.3076" x2="188.0042" y2="-77.2409" gradientTransform="matrix(0.9903 0.139 0.139 -0.9903 44.2498 347.1982)">
				<stop  offset="0" style="stop-color:#004E05"/>
				<stop  offset="1" style="stop-color:#ACB807"/>
			</linearGradient>
			<path class="st7" d="M233.1,477.3l-23.4-2c0,0-2.5-15.4,1.4-15.8c3.6-0.4,4.8,11.9,4.9,13.2c0-1,0.1-7.6,1.9-7.7
				c1.6-0.2,1.2,7.2,1,9.6l0,0c0,0.5-0.1,0.8-0.1,0.8L233.1,477.3z"/>
			
				<linearGradient id="SVGID_8_" gradientUnits="userSpaceOnUse" x1="225.9758" y1="-126.933" x2="215.0202" y2="-71.8665" gradientTransform="matrix(0.9903 0.139 0.139 -0.9903 44.2498 347.1982)">
				<stop  offset="0" style="stop-color:#004E05"/>
				<stop  offset="1" style="stop-color:#ACB807"/>
			</linearGradient>
			<path class="st8" d="M264,475.7c-1,2.4-2.1,4.1-2.1,4.1l-28.9-2.5c0,0-0.2-0.8-0.5-2c-1.2-5.4-3.8-20.2,2.4-20.5
				c4.1-0.2,7,2.9,8.7,5.8l0,0c1.4,2.3,2.1,4.5,2.2,4.8c-0.1-0.5-1.3-7.7,1.7-7.4c3,0.3,0.2,14.8,0.2,14.8s0.7-3,2.2-5.9
				c2-3.9,5.5-7.8,10.9-5C267,465.1,265.7,471.5,264,475.7z"/>
			<path class="st9" d="M218.8,475.3l14.3,2l-14.6-1.3l0.4-1.5C218.8,475,218.8,475.3,218.8,475.3z"/>
			<path class="st9" d="M264,475.7c-1,2.4-2.1,4.1-2.1,4.1l-28.9-2.5c0,0-0.2-0.8-0.5-2c7,0.9,13.3-4.3,11.1-14.6
				c1.4,2.3,2.1,4.5,2.2,4.8c-0.1-0.5-1.3-7.7,1.7-7.4c3,0.3,0.2,14.8,0.2,14.8s0.7-3,2.2-5.9c-0.6,4.3-0.3,9.4,4.2,10.7
				C258.3,478.7,261.6,477.3,264,475.7z"/>
		</g>
		<path class="st10" d="M42.5,484.4l-1.3,3.7l-4.6,0c1.1-0.5,2.1-1.1,2.9-1.7C40.6,485.7,41.6,485,42.5,484.4z"/>
		
			<linearGradient id="SVGID_9_" gradientUnits="userSpaceOnUse" x1="-256.3497" y1="-72.5731" x2="-256.3467" y2="-72.6034" gradientTransform="matrix(1 0 0 -1 91.04 472.34)">
			<stop  offset="0" style="stop-color:#004E05"/>
			<stop  offset="0.4537" style="stop-color:#4E7E06"/>
			<stop  offset="1" style="stop-color:#ACB807"/>
		</linearGradient>
		<polygon class="st11" points="-165.3,544.9 -165.3,544.9 -165.3,544.9 		"/>
		
			<linearGradient id="SVGID_10_" gradientUnits="userSpaceOnUse" x1="-256.3499" y1="-72.6309" x2="-256.3494" y2="-72.5829" gradientTransform="matrix(1 0 0 -1 91.04 472.34)">
			<stop  offset="0" style="stop-color:#004E05"/>
			<stop  offset="0.4537" style="stop-color:#4E7E06"/>
			<stop  offset="1" style="stop-color:#ACB807"/>
		</linearGradient>
		<polygon class="st12" points="-165.3,544.9 -165.3,544.9 -165.3,544.9 		"/>
		<g>
			
				<linearGradient id="SVGID_11_" gradientUnits="userSpaceOnUse" x1="313.9338" y1="17.0425" x2="272.7246" y2="96.4512" gradientTransform="matrix(1 0 0 -1 91.04 472.34)">
				<stop  offset="0" style="stop-color:#004E05"/>
				<stop  offset="1" style="stop-color:#ACB807"/>
			</linearGradient>
			<path class="st13" d="M374.3,411.1c0,0-1.6-9.2,1.7-11c3.3-1.7,0.9,8.8,0.9,8.8s1.5-5,3.2-5.8c1.6-0.9-3.3,11.8-3.3,11.8
				s6.3-11.7,8.6-12.1c1.5-0.2-7.7,10.7-7.7,10.7L374.3,411.1z"/>
			<g>
				
					<linearGradient id="SVGID_12_" gradientUnits="userSpaceOnUse" x1="262.5487" y1="-9.6235" x2="221.3396" y2="69.785" gradientTransform="matrix(1 0 0 -1 91.04 472.34)">
					<stop  offset="0" style="stop-color:#004E05"/>
					<stop  offset="1" style="stop-color:#ACB807"/>
				</linearGradient>
				<path class="st14" d="M319.9,416.7c0,0-9-2.1-3.9-6.3c1.6-1.3,5.2,6.3,5.2,6.3s-2.6-6.3-1.3-6.3c1.3,0,1.3,8.4,1.3,8.4
					L319.9,416.7z"/>
				
					<linearGradient id="SVGID_13_" gradientUnits="userSpaceOnUse" x1="259.9731" y1="31.7335" x2="260.3484" y2="3.4925" gradientTransform="matrix(1 0 0 -1 91.04 472.34)">
					<stop  offset="5.600000e-003" style="stop-color:#9F1D36"/>
					<stop  offset="0.9777" style="stop-color:#E06A39"/>
				</linearGradient>
				<path class="st15" d="M368.8,441c0,0,0,0.5,0,1.2v2.6c0,0.4-3.1,3.1-6.8,6.6c-5.7,5.3-13.1,12.3-13.8,15.1
					c-0.3,1.2-0.5,2.5-0.7,3.7c-0.1,1-0.2,2.1-0.3,3c-0.5,0-1,0-1.5,0c0.2-0.9,0.3-1.9,0.5-3c1-6,1.7-14-0.3-17.9
					c-0.8-1.5-1.8-2.9-3-4.1c-1.1-1.2-2.3-2.2-3.5-3.2c-0.7-0.6-1.4-1.1-2.1-1.5c-2.3-1.6-4-2.5-4-2.5h3.4c0,0,1,1.2,2.4,2.8
					c0.4,0.4,0.7,0.8,1.1,1.3c1,1.1,2,2.2,2.9,3.1c1.3,1.3,2.3,2.2,2.7,2.2c0.4,0,1-0.9,1.7-2c0.7-1.1,1.4-2.4,1.9-3.5
					c0.1-0.1,0.1-0.2,0.1-0.3c0.5-1,0.8-1.7,0.8-1.7h1.1c0,0-0.4,0.7-1,1.7c0,0.1-0.1,0.1-0.1,0.2c-0.6,1-1.3,2.4-2,3.7
					c-0.8,1.6-1.5,3.1-1.5,3.8c0,1.9,1.1,8.5,2.3,9.4c0.8,0.6,7.1-5.4,11.9-10.6c2.5-2.6,4.5-5.1,5.3-6.4c0.6-1,0.9-1.7,1.2-2.2
					c0-0.1,0.1-0.1,0.1-0.2c0.5-1.4-0.1-1.4-0.1-1.4L368.8,441L368.8,441z"/>
				
					<linearGradient id="SVGID_14_" gradientUnits="userSpaceOnUse" x1="281.3893" y1="0.1535" x2="240.18" y2="79.5622" gradientTransform="matrix(1 0 0 -1 91.04 472.34)">
					<stop  offset="0" style="stop-color:#004E05"/>
					<stop  offset="1" style="stop-color:#ACB807"/>
				</linearGradient>
				<path class="st16" d="M394.6,437.5c0,0-0.8,0.2-2.2,0.5c0,0,0,0,0,0c-5.7,1.2-21.7,4.2-37.6,5.1c-2.5,0.1-5.1,0.2-7.8,0.1
					c-17.7-0.5-37.1-5.3-38.6-5.7c-0.1,0-0.1,0-0.1,0s-4.3-29.1,46.6-29.1c13.1,0,22,2.1,28,5.2
					C399.4,421.9,394.6,437.5,394.6,437.5z"/>
				
					<linearGradient id="SVGID_15_" gradientUnits="userSpaceOnUse" x1="246.9304" y1="30.3568" x2="247.8831" y2="19.0782" gradientTransform="matrix(1 0 0 -1 91.04 472.34)">
					<stop  offset="0" style="stop-color:#CB6566"/>
					<stop  offset="1" style="stop-color:#FFD5DD"/>
				</linearGradient>
				<path class="st17" d="M336.7,441c0,0,3.7,4.4,6.5,7.2c-0.1,0-0.2,0-0.3,0c-4.1-4.3-9.6-7.2-9.6-7.2H336.7z"/>
				
					<linearGradient id="SVGID_16_" gradientUnits="userSpaceOnUse" x1="258.4038" y1="28.4418" x2="259.051" y2="20.7809" gradientTransform="matrix(1 0 0 -1 91.04 472.34)">
					<stop  offset="0" style="stop-color:#CB6566"/>
					<stop  offset="1" style="stop-color:#FFD5DD"/>
				</linearGradient>
				<path class="st18" d="M350.4,442.8h1.1c0,0-1.8,2.9-3.1,5.6c-0.3,0-0.6-0.1-0.9-0.1C348.9,446.1,350.4,442.8,350.4,442.8z"/>
				
					<linearGradient id="SVGID_17_" gradientUnits="userSpaceOnUse" x1="273.7171" y1="29.3812" x2="274.8899" y2="15.4988" gradientTransform="matrix(1 0 0 -1 91.04 472.34)">
					<stop  offset="0" style="stop-color:#CB6566"/>
					<stop  offset="1" style="stop-color:#FFD5DD"/>
				</linearGradient>
				<path class="st19" d="M368.8,441c0,0,0,2.8,0,3.8c0,0.4-3.1,3.1-6.8,6.6c-0.3-0.1-0.5-0.2-0.8-0.2c2.5-2.6,4.5-5.1,5.3-6.4
					c2.3-3.8,1.1-3.8,1.1-3.8H368.8z"/>
				
					<linearGradient id="SVGID_18_" gradientUnits="userSpaceOnUse" x1="261.6925" y1="23.9646" x2="252.7995" y2="64.3385" gradientTransform="matrix(1 0 0 -1 91.04 472.34)">
					<stop  offset="0" style="stop-color:#004E05"/>
					<stop  offset="1" style="stop-color:#ACB807"/>
				</linearGradient>
				<path class="st20" d="M392.4,437.9c-0.1,0-0.2,0-0.3,0.1c-5.9,1.2-21.7,3.9-37.3,5.1c-2.4,0.2-4.6,0.3-6.8,0.4
					c-24.5,0.7-36.5-4.8-39.1-5.8c0,0,0,0,0,0c-0.1-0.1-0.3-0.1-0.4-0.1c0,0,0,0,0,0c0.6,0,1.3,0,2.1,0c7.4-0.6,13.2-0.6,18.4-0.4
					c13.6,0.7,22.7,3.4,43.6,2.6C379.9,439.4,386.5,438.8,392.4,437.9z"/>
				
					<linearGradient id="SVGID_19_" gradientUnits="userSpaceOnUse" x1="226.5505" y1="86.769" x2="282.2169" y2="12.3551" gradientTransform="matrix(1 0 0 -1 91.04 472.34)">
					<stop  offset="0" style="stop-color:#004E05"/>
					<stop  offset="0.4537" style="stop-color:#4E7E06"/>
					<stop  offset="1" style="stop-color:#ACB807"/>
				</linearGradient>
				<path class="st21" d="M394.6,437.5c0,0-0.8,0.2-2.2,0.5c0,0,0,0,0,0c-0.1,0-0.2,0-0.3,0.1c-5.9,1.2-21.6,4.2-37.3,5.1
					c0,0,0,0,0,0c0,0-0.1,0-0.1,0c0,0,0,0,0,0c-0.7,0-3.2,0.2-6.7,0.3c-24.5,0.7-36.5-4.8-39.1-5.8c0,0,0.1,0,0.1,0
					c8.6-0.5,17.2-0.5,20-0.5c0.6,0,0.9,0,0.9,0c50.4-0.8,65.3-12.8,53.4-23.3c-0.1-0.1-0.2-0.2-0.3-0.3
					C399.4,421.9,394.6,437.5,394.6,437.5z"/>
			</g>
			
				<linearGradient id="SVGID_20_" gradientUnits="userSpaceOnUse" x1="253.6228" y1="-6.5781" x2="249.8304" y2="0.3638" gradientTransform="matrix(1 0 0 -1 91.04 472.34)">
				<stop  offset="0" style="stop-color:#AE5E59"/>
				<stop  offset="0.9946" style="stop-color:#FDB063"/>
			</linearGradient>
			<path class="st22" d="M349.2,474.2h-14.7l5.7-1.1c0,0,1.1-3.4,3.4-3.4c0,0,0,0,0,0c2.3,0,2.3,3.4,2.3,3.4s0-0.9,1.6-0.3
				c0.2,0.1,0.4,0.2,0.7,0.3C350.4,474.2,349.2,474.2,349.2,474.2z"/>
			
				<linearGradient id="SVGID_21_" gradientUnits="userSpaceOnUse" x1="253.7193" y1="-6.2624" x2="255.6053" y2="12.7559" gradientTransform="matrix(1 0 0 -1 91.04 472.34)">
				<stop  offset="0" style="stop-color:#F9CA7B"/>
				<stop  offset="1" style="stop-color:#CA5F4B"/>
			</linearGradient>
			<path class="st23" d="M347.4,472.7l-0.5,1.4h-2.3c-0.1-1.2-0.4-3.2-1.1-4.5c0,0,0,0,0,0c2.3,0,2.3,3.4,2.3,3.4
				S345.8,472.1,347.4,472.7z"/>
		</g>
		
			<linearGradient id="SVGID_22_" gradientUnits="userSpaceOnUse" x1="-256.3496" y1="-72.5602" x2="-256.3492" y2="-72.6161" gradientTransform="matrix(1 0 0 -1 91.04 472.34)">
			<stop  offset="0" style="stop-color:#004E05"/>
			<stop  offset="0.4537" style="stop-color:#4E7E06"/>
			<stop  offset="1" style="stop-color:#ACB807"/>
		</linearGradient>
		<polygon class="st24" points="-165.3,544.9 -165.3,544.9 -165.3,544.9 		"/>
		
			<linearGradient id="SVGID_23_" gradientUnits="userSpaceOnUse" x1="18.2071" y1="-80.9564" x2="18.0783" y2="-80.73" gradientTransform="matrix(1 0 0 -1 91.04 472.34)">
			<stop  offset="0" style="stop-color:#FFAD3F"/>
			<stop  offset="0.11" style="stop-color:#FD9659"/>
			<stop  offset="0.2865" style="stop-color:#FB777D"/>
			<stop  offset="0.4646" style="stop-color:#F95F99"/>
			<stop  offset="0.6428" style="stop-color:#F74EAD"/>
			<stop  offset="0.8211" style="stop-color:#F643B9"/>
			<stop  offset="1" style="stop-color:#F640BD"/>
		</linearGradient>
		<path class="st25" d="M109.2,553c0,0.1-0.1,0.2-0.1,0.3C109.1,553.2,109.2,553.1,109.2,553z"/>
		<g>
			
				<linearGradient id="SVGID_24_" gradientUnits="userSpaceOnUse" x1="-132.3273" y1="-112.9832" x2="-114.6956" y2="-48.0243" gradientTransform="matrix(0.9884 0.152 0.152 -0.9884 65.1616 387.2729)">
				<stop  offset="0" style="stop-color:#004E05"/>
				<stop  offset="1" style="stop-color:#ACB807"/>
			</linearGradient>
			<path class="st26" d="M-26.7,468.8l-12.8-2.7l-14.6-3l-15.1-3.1l-34.1-7.1l-4.3-0.9l-0.2,0l-10.3-2.1c-3.3-1-2.7-4.2-0.9-6.7
				c1.5-2.2,4-3.9,5.7-3.4c3.2,0.9,4.2,4.6,4.5,5.5c-0.2-1.3-1.1-7.7,0.5-8.4c1-0.4,1.7,0.9,2.3,2.5c0.3,1,0.6,2,0.7,2.8
				c-0.5-3.7-0.9-12.7,7-13.7c0.3,0,0.5-0.1,0.8-0.1c0,0,0,0,0,0c0.9,0,1.7,0.1,2.5,0.3c0,0,0.1,0,0.1,0c0,0,0,0,0,0
				c6.2,1.9,6.5,11.9,6.4,16.4c-0.1,1.4-0.2,2.2-0.2,2.2s2.3-7.7,4.4-6.2c0.7,0.5-0.3,5.6-0.7,7.2c-0.1,0.3-0.1,0.5-0.1,0.5
				s0.5-1.8,1.6-1.4c0.9,0.4-0.3,3.8-0.6,4.8c0.4-0.9,1.6-3.5,3.5-5.7c0,0,0,0,0,0c2.1-2.4,4.9-4.4,8.3-3.3
				c5.9,1.9,2.6,9.5,1.1,12.3c-0.3,0.7-0.6,1.1-0.6,1.1s3.3-1.1,4-0.3c0.7,0.8-0.6,2.8-0.6,2.8l0,0l13.8,2.7l0.6,0.1
				c0,0,1.4-14.7,5.3-14.8c0.1,0,0.1,0,0.2,0c0.1,0,0.2,0,0.2,0l0.1,0c3.9,1-0.1,10.2-0.9,11.9c0.2-0.3,0.5-0.9,0.9-1.5c0,0,0,0,0,0
				c0.7-1.1,1.6-2.1,2.3-1.6c0.5,0.4,0.3,1.5,0,2.6c1.3-2.3,3.8-4.8,8-4.4c0.7,0.1,1.4,0.2,2.2,0.4c8.3,2.5,7.6,10.5,7.3,12.5
				c0.2-0.9,0.8-2.9,2.5-2.4C-23.6,465.6-26.7,468.8-26.7,468.8z"/>
			<path class="st9" d="M-94.9,428.8C-94.9,428.8-94.9,428.8-94.9,428.8C-94.9,428.8-94.9,428.8-94.9,428.8
				C-94.9,428.8-94.9,428.8-94.9,428.8z"/>
			<path class="st27" d="M-107.7,452l-10.3-2.1c-3.3-1-2.7-4.2-0.9-6.7C-118,448.5-107.7,452-107.7,452z"/>
			<path class="st27" d="M-68.4,459.3L-68.4,459.3l-0.7,0.7l-34.1-7.1c-0.3-0.9-2.4-7.6-2.8-13.6c0.3,1,0.6,2,0.7,2.8
				c-0.5-3.7-0.9-12.7,7-13.7c0.3,0,0.5-0.1,0.8-0.1c-2,0.3-4.4,2.2-4.6,9.2c-0.3,12.1,11.2,17,11.2,17s1.2-5.4,2.4-9.5
				c-0.1,1.4-0.2,2.2-0.2,2.2s2.3-7.7,4.4-6.2c0,0-5.6,7.1-3.4,10.1c0.9,1.2,1.9-0.5,2.8-2.9c-0.1,0.3-0.1,0.5-0.1,0.5
				s0.5-1.8,1.6-1.4c0.9,0.4-0.3,3.8-0.6,4.8c0.4-0.9,1.6-3.5,3.5-5.7c-0.2,0.5-3.6,7.2-1.2,9.5c1.9,1.8,6.8,1.8,10.7-0.5
				c-0.3,0.7-0.6,1.1-0.6,1.1s3.3-1.1,4-0.3C-67,457.4-68.4,459.3-68.4,459.3z"/>
			<path class="st27" d="M-39.5,466.2l-14.6-3l-0.5-1.1l0.6,0.1c0,0,1.4-14.7,5.3-14.8c-2.1,0.3-4.6,10.8-2.4,13
				c0.6,0.6,1.2,0.1,2-1c0.3-0.4,0.7-1,1-1.6c0,0,0,0,0,0c0.7-1.1,1.6-2.1,2.3-1.6c0.5,0.4,0.3,1.5,0,2.6c1.3-2.3,3.8-4.8,8-4.4
				c-8.2,0.1-6.2,9.1-2.6,11.3C-40.1,465.9-39.8,466-39.5,466.2z"/>
			
				<linearGradient id="SVGID_25_" gradientUnits="userSpaceOnUse" x1="-112.3741" y1="-90.2833" x2="-113.5144" y2="-93.2767" gradientTransform="matrix(0.9884 0.152 0.152 -0.9884 65.1616 387.2729)">
				<stop  offset="0" style="stop-color:#004E05"/>
				<stop  offset="0.4537" style="stop-color:#4E7E06"/>
				<stop  offset="1" style="stop-color:#ACB807"/>
			</linearGradient>
			<path class="st28" d="M-54.5,462c0,0-1.7,0-4.4,0l-7.8-1.6L-54.5,462z"/>
		</g>
		<g>
			
				<linearGradient id="SVGID_26_" gradientUnits="userSpaceOnUse" x1="-6.826454e-002" y1="-141.9638" x2="19.3509" y2="4.4572" gradientTransform="matrix(1 0 0 -1 91.04 472.34)">
				<stop  offset="0" style="stop-color:#004E05"/>
				<stop  offset="1" style="stop-color:#ACB807"/>
			</linearGradient>
			<path class="st29" d="M197.7,470.1c-0.5-0.1-37.7-4.9-76-9.6c-9.5-1.2-19.1-2.3-28.2-3.4c-9.2-1.1-18-2.1-25.6-2.9
				c-6.2-0.6-11.6-1.2-16-1.6c-4.8-0.4-8.4-0.6-10.4-0.6c-0.9,0-1.8,0-2.8,0.1c-1.6,0.1-3.3,0.2-5.1,0.4c0,0,0,0,0,0
				c-1.4,0.1-2.8,0.3-4.3,0.5c-16.7,2.3-38.7,7.9-67.7,12.2c-0.2,0-0.4,0.1-0.7,0.1c-22.4-3.5-56.8-11.7-76.7-15.3
				c-5-0.9-9-1.5-11.7-1.7c0,0-0.1,0-0.1,0c-3.1-0.2-9.4,0.2-17.8,1c-2,0.2-4,0.4-6.2,0.6c-6.4,0.6-13.6,1.4-21.1,2.3
				c-2.7,0.3-5.4,0.6-8.2,1c-22.4,2.7-46.9,6-63.9,8.3v51.3h705.6v-38.7C370.3,473.5,216.3,472.3,197.7,470.1z"/>
			
				<linearGradient id="SVGID_27_" gradientUnits="userSpaceOnUse" x1="188.8788" y1="-29.6325" x2="189.2456" y2="7.7877" gradientTransform="matrix(1 0 0 -1 91.04 472.34)">
				<stop  offset="0" style="stop-color:#004E05"/>
				<stop  offset="1" style="stop-color:#ACB807"/>
			</linearGradient>
			<path class="st30" d="M465.5,475.9l-3.6,9.9c0,0-13-3.6-47-3.6c-55.1,0-147,3-191.7-1.6c-59.1-6.1-111-18.8-128-23.3
				c9.1,1.1,18.7,2.2,28.2,3.4c25.6,5.7,65.1,13.2,110.6,17.4C278.6,482.4,465.5,475.9,465.5,475.9z"/>
			
				<linearGradient id="SVGID_28_" gradientUnits="userSpaceOnUse" x1="165.9748" y1="-68.0381" x2="166.7073" y2="6.683" gradientTransform="matrix(1 0 0 -1 91.04 472.34)">
				<stop  offset="0" style="stop-color:#004E05"/>
				<stop  offset="1" style="stop-color:#ACB807"/>
			</linearGradient>
			<path class="st31" d="M462.2,493.1c-61.9-0.2-220.5-1.2-264.4-7.2c-57.9-7.9-106.3-23.5-128.3-31.4c-6.2-0.6-11.6-1.2-16-1.6
				l-0.3,0.3c0,0,65.1,25.3,137.5,36.2c47.9,7.2,212.5,14.7,271.7,17.2V493.1z"/>
		</g>
	</g>
</g>
</svg>
