<?xml version="1.0" encoding="utf-8"?>
<!-- Generator: Adobe Illustrator 17.0.0, SVG Export Plug-In . SVG Version: 6.00 Build 0)  -->
<!DOCTYPE svg PUBLIC "-//W3C//DTD SVG 1.1//EN" "http://www.w3.org/Graphics/SVG/1.1/DTD/svg11.dtd">
<svg version="1.1" id="shadow_1_" xmlns="http://www.w3.org/2000/svg" xmlns:xlink="http://www.w3.org/1999/xlink" x="0px" y="0px"
	 width="2400px" height="562.2px" viewBox="0 0 2400 562.2" style="enable-background:new 0 0 2400 562.2;" xml:space="preserve">
<style type="text/css">
	.st0{fill:url(#SVGID_1_);}
	.st1{fill:#E0E000;}
	.st2{fill:#4DC4AD;}
	.st3{opacity:0.12;fill:url(#SVGID_2_);enable-background:new    ;}
	.st4{opacity:0.12;fill:url(#SVGID_3_);enable-background:new    ;}
	.st5{opacity:0.12;fill:url(#SVGID_4_);enable-background:new    ;}
	.st6{fill:url(#SVGID_5_);}
	.st7{fill:url(#SVGID_6_);}
	.st8{opacity:0.25;fill:#0F0FAC;enable-background:new    ;}
	.st9{opacity:0.42;fill:#5C5700;enable-background:new    ;}
	.st10{opacity:0.38;fill:url(#SVGID_7_);enable-background:new    ;}
	.st11{opacity:0.38;fill:url(#SVGID_8_);enable-background:new    ;}
	.st12{fill:url(#SVGID_9_);}
	.st13{fill:url(#SVGID_10_);}
	.st14{fill:url(#SVGID_11_);}
	.st15{fill:url(#SVGID_12_);}
	.st16{opacity:0.7;fill:url(#SVGID_13_);enable-background:new    ;}
	.st17{opacity:0.7;fill:url(#SVGID_14_);enable-background:new    ;}
	.st18{opacity:0.7;fill:url(#SVGID_15_);enable-background:new    ;}
	.st19{fill:url(#SVGID_16_);}
	.st20{opacity:0.37;fill:url(#SVGID_17_);enable-background:new    ;}
	.st21{fill:url(#SVGID_18_);}
	.st22{opacity:0.7;fill:url(#SVGID_19_);enable-background:new    ;}
	.st23{fill:url(#SVGID_20_);}
	.st24{opacity:0.15;fill:url(#SVGID_21_);enable-background:new    ;}
	.st25{fill:url(#SVGID_22_);}
	.st26{opacity:0.13;fill:#0F0FAC;enable-background:new    ;}
	.st27{opacity:0.39;fill:url(#SVGID_23_);enable-background:new    ;}
	.st28{fill:url(#SVGID_24_);}
	.st29{opacity:0.21;fill:url(#SVGID_25_);enable-background:new    ;}
	.st30{opacity:0.21;fill:url(#SVGID_26_);enable-background:new    ;}
</style>
<linearGradient id="SVGID_1_" gradientUnits="userSpaceOnUse" x1="1324.4539" y1="652.7633" x2="1288.4539" y2="-85.2367" gradientTransform="matrix(1 0 0 -1 -97.66 398.26)">
	<stop  offset="0" style="stop-color:#2C9DFB"/>
	<stop  offset="0.1183" style="stop-color:#4DAFFC"/>
	<stop  offset="0.3257" style="stop-color:#82CCFD"/>
	<stop  offset="0.5059" style="stop-color:#A8E1FE"/>
	<stop  offset="0.65" style="stop-color:#BFEEFF"/>
	<stop  offset="0.7398" style="stop-color:#C8F3FF"/>
</linearGradient>
<rect x="1.3" class="st0" width="2398.7" height="562.4"/>
<path class="st1" d="M2400,324.7c-3.5,0.5-7.3,1-11.2,1.6c-14.5,2.1-31.6,4.5-50.8,7.2c-40,5.7-89,12.6-141.7,20
	c-28.4,4-58,8-87.8,12.1c-169.3,23.2-347.5,46.3-384.6,46.3c-74.4,0-450.9,9.3-450.9,9.3l41.8,46.5l534.7,11.2l54.2,1.1l227.7,4.8
	l71.8,1.5l196.7,4.1V324.7z"/>
<path class="st2" d="M1913.9,444.9l0.4,0c0,2.5,0,3.8,0,3.8S1914.2,447.4,1913.9,444.9z"/>
<linearGradient id="SVGID_2_" gradientUnits="userSpaceOnUse" x1="1937.582" y1="-5.787" x2="2486.4399" y2="-5.787" gradientTransform="matrix(1 0 0 -1 -97.66 398.26)">
	<stop  offset="0" style="stop-color:#004E05"/>
	<stop  offset="0.4537" style="stop-color:#4E7E06"/>
	<stop  offset="1" style="stop-color:#ACB807"/>
</linearGradient>
<path class="st3" d="M2388.8,326.3c-195.4,39.8-390.6,151.2-390.6,151.2l-94.4,2.6l-63.9,1.7l9.6-2.9L2338,333.5
	C2357.2,330.8,2374.3,328.4,2388.8,326.3z"/>
<linearGradient id="SVGID_3_" gradientUnits="userSpaceOnUse" x1="2129.3208" y1="-31.225" x2="2537.3892" y2="-31.225" gradientTransform="matrix(1 0 0 -1 -97.66 398.26)">
	<stop  offset="0" style="stop-color:#004E05"/>
	<stop  offset="0.4537" style="stop-color:#4E7E06"/>
	<stop  offset="1" style="stop-color:#ACB807"/>
</linearGradient>
<path class="st4" d="M2439.7,319l0,0.2c-107.9,61.8-199.1,135.6-236.4,167.2c-11.6,9.9-18,15.6-18,15.6l-153.7,38l99.8-55.2
	l297.4-164.3C2435.9,319.5,2439.7,319,2439.7,319z"/>
<linearGradient id="SVGID_4_" gradientUnits="userSpaceOnUse" x1="1741.973" y1="-14.657" x2="2293.8989" y2="-14.657" gradientTransform="matrix(1 0 0 -1 -97.66 398.26)">
	<stop  offset="0" style="stop-color:#004E05"/>
	<stop  offset="0.4537" style="stop-color:#4E7E06"/>
	<stop  offset="1" style="stop-color:#ACB807"/>
</linearGradient>
<path class="st5" d="M2196.2,353.5c-230.1,45.1-430.5,118.9-430.5,118.9l-121.4-14.7l464.1-92
	C2138.3,361.5,2167.8,357.4,2196.2,353.5z"/>
<g>
	
		<linearGradient id="SVGID_5_" gradientUnits="userSpaceOnUse" x1="1778.3927" y1="-207.714" x2="1740.9961" y2="-19.746" gradientTransform="matrix(0.9903 0.139 0.139 -0.9903 -135.1494 90.581)">
		<stop  offset="0" style="stop-color:#004E05"/>
		<stop  offset="1" style="stop-color:#ACB807"/>
	</linearGradient>
	<path class="st6" d="M1631.8,445.9l-79.8-6.9c0,0-8.4-52.6,4.7-54.1c12.4-1.4,16.4,40.6,16.8,45.1c0-3.4,0.4-25.8,6.3-26.4
		c5.3-0.5,4.1,24.5,3.5,32.8l0,0.1c-0.1,1.6-0.2,2.6-0.2,2.6L1631.8,445.9z"/>
	
		<linearGradient id="SVGID_6_" gradientUnits="userSpaceOnUse" x1="1870.6106" y1="-189.3683" x2="1833.214" y2="-1.4009" gradientTransform="matrix(0.9903 0.139 0.139 -0.9903 -135.1494 90.581)">
		<stop  offset="0" style="stop-color:#004E05"/>
		<stop  offset="1" style="stop-color:#ACB807"/>
	</linearGradient>
	<path class="st7" d="M1737.6,440.4c-3.3,8.2-7.1,14-7.1,14l-98.6-8.5c0,0-0.7-2.6-1.6-6.8c-4.1-18.6-13-69,8.2-69.8
		c14-0.5,23.8,10,29.9,19.9l0,0c4.8,7.9,7.3,15.3,7.6,16.3c-0.3-1.7-4.3-26.2,5.7-25.3c10.3,0.9,0.8,50.6,0.8,50.6
		s2.3-10.1,7.5-20.2c6.9-13.3,18.8-26.7,37.2-17.1C1747.7,404.1,1743.4,426,1737.6,440.4z"/>
	<path class="st8" d="M1583.1,439.1l48.7,6.8l-49.8-4.3l1.3-5.1C1583.2,438.2,1583.1,439.1,1583.1,439.1z"/>
	<path class="st8" d="M1737.6,440.4c-3.3,8.2-7.1,14-7.1,14l-98.6-8.5c0,0-0.7-2.6-1.6-6.8c24,3.2,45.5-14.5,38-49.9
		c4.8,7.9,7.3,15.3,7.6,16.3c-0.3-1.7-4.3-26.2,5.7-25.3c10.3,0.9,0.8,50.6,0.8,50.6s2.3-10.1,7.5-20.2
		c-2.1,14.8-0.9,32.2,14.4,36.4C1717.8,450.7,1729.3,446.1,1737.6,440.4z"/>
</g>
<path class="st9" d="M981.4,470.1l-4.5,12.6l-15.8-0.1c3.8-1.8,7.2-3.7,10-5.7C974.8,474.5,978.2,472.2,981.4,470.1z"/>
<linearGradient id="SVGID_7_" gradientUnits="userSpaceOnUse" x1="369.6796" y1="-278.4624" x2="369.6899" y2="-278.5658" gradientTransform="matrix(1 0 0 -1 -97.66 398.26)">
	<stop  offset="0" style="stop-color:#004E05"/>
	<stop  offset="0.4537" style="stop-color:#4E7E06"/>
	<stop  offset="1" style="stop-color:#ACB807"/>
</linearGradient>
<polygon class="st10" points="272,676.7 272,676.8 272,676.7 "/>
<linearGradient id="SVGID_8_" gradientUnits="userSpaceOnUse" x1="369.6793" y1="-278.6595" x2="369.6808" y2="-278.4957" gradientTransform="matrix(1 0 0 -1 -97.66 398.26)">
	<stop  offset="0" style="stop-color:#004E05"/>
	<stop  offset="0.4537" style="stop-color:#4E7E06"/>
	<stop  offset="1" style="stop-color:#ACB807"/>
</linearGradient>
<polygon class="st11" points="272,676.7 272,676.8 272,676.7 "/>
<g>
	
		<linearGradient id="SVGID_9_" gradientUnits="userSpaceOnUse" x1="2316.3198" y1="27.4369" x2="2175.6541" y2="298.4956" gradientTransform="matrix(1 0 0 -1 -97.66 398.26)">
		<stop  offset="0" style="stop-color:#004E05"/>
		<stop  offset="1" style="stop-color:#ACB807"/>
	</linearGradient>
	<path class="st12" d="M2113.9,220c0,0-5.4-31.6,5.8-37.4c11.2-5.8,3.1,29.9,3.1,29.9s5.2-17,10.8-20c5.6-2.9-11.4,40.3-11.4,40.3
		s21.6-39.9,29.5-41.2c5-0.8-26.2,36.6-26.2,36.6L2113.9,220z"/>
	<g>
		
			<linearGradient id="SVGID_10_" gradientUnits="userSpaceOnUse" x1="2140.9187" y1="-63.5862" x2="2000.2533" y2="207.4714" gradientTransform="matrix(1 0 0 -1 -97.66 398.26)">
			<stop  offset="0" style="stop-color:#004E05"/>
			<stop  offset="1" style="stop-color:#ACB807"/>
		</linearGradient>
		<path class="st13" d="M1928.1,239.2c0,0-30.9-7.1-13.2-21.4c5.6-4.5,17.6,21.4,17.6,21.4s-8.8-21.4-4.4-21.4
			c4.4,0,4.4,28.5,4.4,28.5L1928.1,239.2z"/>
		
			<linearGradient id="SVGID_11_" gradientUnits="userSpaceOnUse" x1="2132.127" y1="77.5843" x2="2133.4082" y2="-18.8153" gradientTransform="matrix(1 0 0 -1 -97.66 398.26)">
			<stop  offset="5.600000e-003" style="stop-color:#9F1D36"/>
			<stop  offset="0.9777" style="stop-color:#E06A39"/>
		</linearGradient>
		<path class="st14" d="M2095.2,321.9c0,0,0,1.7,0,4v8.9c0,1.3-10.5,10.6-23.3,22.5c-19.6,18-44.8,41.8-47.2,51.5
			c-1,4-1.7,8.4-2.3,12.7c-0.4,3.5-0.8,7-1,10.3c-1.7,0-3.5,0-5.2-0.1c0.6-3.1,1.2-6.5,1.8-10.2c3.3-20.5,5.7-47.9-1.1-61
			c-2.6-5.1-6.3-9.8-10.3-14.1c-3.8-4-7.9-7.7-11.9-10.8c-2.4-1.9-4.8-3.6-7-5.2c-7.8-5.4-13.8-8.5-13.8-8.5h11.8
			c0,0,3.5,4.1,8.2,9.4c1.2,1.4,2.6,2.9,3.9,4.4c3.3,3.7,6.9,7.5,10,10.7c4.4,4.4,8,7.7,9.2,7.7c1.3,0,3.6-3,5.9-6.9
			c2.2-3.7,4.6-8.3,6.4-12c0.2-0.3,0.3-0.7,0.5-1c1.7-3.4,2.8-5.9,2.8-5.9h3.9c0,0-1.5,2.4-3.5,5.9c-0.1,0.2-0.3,0.5-0.4,0.7
			c-2,3.6-4.6,8.2-6.8,12.5c-2.8,5.5-5,10.6-5,13c0,6.4,3.9,29,7.8,32.2c2.6,2.1,24.2-18.4,40.7-36.2c8.4-9,15.4-17.4,18.1-21.7
			c2-3.3,3.2-5.7,3.9-7.5c0.1-0.2,0.2-0.5,0.3-0.7c1.7-4.7-0.3-4.7-0.3-4.7L2095.2,321.9L2095.2,321.9z"/>
		
			<linearGradient id="SVGID_12_" gradientUnits="userSpaceOnUse" x1="2205.2305" y1="-30.2129" x2="2064.5642" y2="240.8457" gradientTransform="matrix(1 0 0 -1 -97.66 398.26)">
			<stop  offset="0" style="stop-color:#004E05"/>
			<stop  offset="1" style="stop-color:#ACB807"/>
		</linearGradient>
		<path class="st15" d="M2183.1,310c0,0-2.7,0.6-7.5,1.6c0,0,0,0,0,0c-19.5,4-73.9,14.4-128.4,17.5c-8.5,0.5-17.4,0.5-26.5,0.3
			c-60.3-1.8-126.5-18-131.8-19.3c-0.2-0.1-0.3-0.1-0.3-0.1s-14.6-99.3,159-99.3c44.6,0,75,7.2,95.6,17.6
			C2199.6,256.8,2183.1,310,2183.1,310z"/>
		
			<linearGradient id="SVGID_13_" gradientUnits="userSpaceOnUse" x1="2087.6062" y1="72.8849" x2="2090.8584" y2="34.3859" gradientTransform="matrix(1 0 0 -1 -97.66 398.26)">
			<stop  offset="0" style="stop-color:#CB6566"/>
			<stop  offset="1" style="stop-color:#FFD5DD"/>
		</linearGradient>
		<path class="st16" d="M1985.5,321.9c0,0,12.8,15,22.2,24.5c-0.4,0-0.7,0-1.1,0c-14-14.8-32.8-24.5-32.8-24.5H1985.5z"/>
		
			<linearGradient id="SVGID_14_" gradientUnits="userSpaceOnUse" x1="2126.7705" y1="66.3482" x2="2128.9795" y2="40.198" gradientTransform="matrix(1 0 0 -1 -97.66 398.26)">
			<stop  offset="0" style="stop-color:#CB6566"/>
			<stop  offset="1" style="stop-color:#FFD5DD"/>
		</linearGradient>
		<path class="st17" d="M2032.5,328.3h3.9c0,0-6.1,10.1-10.7,19.2c-1-0.1-2-0.2-3-0.3C2027.4,339.6,2032.5,328.3,2032.5,328.3z"/>
		
			<linearGradient id="SVGID_15_" gradientUnits="userSpaceOnUse" x1="2179.0417" y1="69.5549" x2="2183.0449" y2="22.1677" gradientTransform="matrix(1 0 0 -1 -97.66 398.26)">
			<stop  offset="0" style="stop-color:#CB6566"/>
			<stop  offset="1" style="stop-color:#FFD5DD"/>
		</linearGradient>
		<path class="st18" d="M2095.2,321.9c0,0,0,9.7,0,12.9c0,1.3-10.5,10.6-23.3,22.5c-0.9-0.3-1.7-0.5-2.6-0.8
			c8.4-9,15.5-17.4,18.1-21.7c7.8-12.9,3.9-12.9,3.9-12.9H2095.2z"/>
		
			<linearGradient id="SVGID_16_" gradientUnits="userSpaceOnUse" x1="2137.9961" y1="51.0654" x2="2107.6404" y2="188.8802" gradientTransform="matrix(1 0 0 -1 -97.66 398.26)">
			<stop  offset="0" style="stop-color:#004E05"/>
			<stop  offset="1" style="stop-color:#ACB807"/>
		</linearGradient>
		<path class="st19" d="M2175.6,311.6c-0.3,0.1-0.6,0.1-0.9,0.2c-20.3,4.1-74.1,13.4-127.5,17.3c-8.1,0.6-15.8,1-23.2,1.2
			c-83.7,2.6-124.5-16.4-133.6-19.8c0,0,0,0,0,0c-0.5-0.2-0.9-0.3-1.2-0.4c0,0-0.1,0-0.1,0c2.1-0.1,4.6,0.1,7.2-0.1
			c25.1-2.1,45-2.2,62.7-1.3c46.4,2.4,77.6,11.7,148.7,8.9C2132.9,316.6,2155.7,314.4,2175.6,311.6z"/>
		
			<linearGradient id="SVGID_17_" gradientUnits="userSpaceOnUse" x1="2018.0404" y1="265.4458" x2="2208.0552" y2="11.4367" gradientTransform="matrix(1 0 0 -1 -97.66 398.26)">
			<stop  offset="0" style="stop-color:#004E05"/>
			<stop  offset="0.4537" style="stop-color:#4E7E06"/>
			<stop  offset="1" style="stop-color:#ACB807"/>
		</linearGradient>
		<path class="st20" d="M2183.1,310c0,0-2.7,0.6-7.5,1.6c0,0,0,0,0,0c-0.3,0.1-0.6,0.1-0.9,0.2c-20.2,4.2-73.9,14.3-127.5,17.3
			c0,0-0.1,0-0.1,0c-0.1,0-0.2,0-0.3,0c-0.1,0-0.1,0-0.2,0c-2.5,0.1-10.8,0.6-22.7,1.2c-83.7,2.6-124.5-16.4-133.6-19.8
			c0.1,0,0.2,0,0.4,0c29.3-1.8,58.7-1.8,68.2-1.8c2.1,0,3.2,0,3.2,0c172.2-2.6,222.8-43.6,182.3-79.5c-0.4-0.4-0.8-0.7-1.2-1
			C2199.6,256.8,2183.1,310,2183.1,310z"/>
	</g>
	
		<linearGradient id="SVGID_18_" gradientUnits="userSpaceOnUse" x1="2110.4504" y1="-53.1909" x2="2097.5056" y2="-29.495" gradientTransform="matrix(1 0 0 -1 -97.66 398.26)">
		<stop  offset="0" style="stop-color:#AE5E59"/>
		<stop  offset="0.9946" style="stop-color:#FDB063"/>
	</linearGradient>
	<path class="st21" d="M2028.4,435.2h-50.3l19.3-3.9c0,0,3.8-11.5,11.5-11.6c0,0,0.1,0,0.1,0c7.7,0,7.7,11.6,7.7,11.6s0-3.1,5.5-1
		c0.7,0.2,1.4,0.6,2.2,1C2032.3,435.2,2028.4,435.2,2028.4,435.2z"/>
	
		<linearGradient id="SVGID_19_" gradientUnits="userSpaceOnUse" x1="2110.7798" y1="-52.1134" x2="2117.218" y2="12.8048" gradientTransform="matrix(1 0 0 -1 -97.66 398.26)">
		<stop  offset="0" style="stop-color:#F9CA7B"/>
		<stop  offset="1" style="stop-color:#CA5F4B"/>
	</linearGradient>
	<path class="st22" d="M2022.3,430.4l-1.6,4.9h-7.9c-0.3-4.2-1.2-11-3.8-15.5c0,0,0.1,0,0.1,0c7.7,0,7.7,11.6,7.7,11.6
		S2016.8,428.3,2022.3,430.4z"/>
</g>
<linearGradient id="SVGID_20_" gradientUnits="userSpaceOnUse" x1="369.6801" y1="-278.4181" x2="369.6815" y2="-278.609" gradientTransform="matrix(1 0 0 -1 -97.66 398.26)">
	<stop  offset="0" style="stop-color:#004E05"/>
	<stop  offset="0.4537" style="stop-color:#4E7E06"/>
	<stop  offset="1" style="stop-color:#ACB807"/>
</linearGradient>
<polygon class="st23" points="272,676.7 272,676.7 272,676.8 "/>
<linearGradient id="SVGID_21_" gradientUnits="userSpaceOnUse" x1="1306.8683" y1="-307.0782" x2="1306.4288" y2="-306.3055" gradientTransform="matrix(1 0 0 -1 -97.66 398.26)">
	<stop  offset="0" style="stop-color:#FFAD3F"/>
	<stop  offset="0.11" style="stop-color:#FD9659"/>
	<stop  offset="0.2865" style="stop-color:#FB777D"/>
	<stop  offset="0.4646" style="stop-color:#F95F99"/>
	<stop  offset="0.6428" style="stop-color:#F74EAD"/>
	<stop  offset="0.8211" style="stop-color:#F643B9"/>
	<stop  offset="1" style="stop-color:#F640BD"/>
</linearGradient>
<path class="st24" d="M1209.1,704.2c-0.1,0.2-0.2,0.6-0.4,1C1208.8,704.9,1208.9,704.6,1209.1,704.2z"/>
<g>
	
		<linearGradient id="SVGID_22_" gradientUnits="userSpaceOnUse" x1="709.2799" y1="-232.4832" x2="769.4649" y2="-10.7485" gradientTransform="matrix(0.9884 0.152 0.152 -0.9884 -112.0657 113.5595)">
		<stop  offset="0" style="stop-color:#004E05"/>
		<stop  offset="1" style="stop-color:#ACB807"/>
	</linearGradient>
	<path class="st25" d="M745.1,417.1l-43.6-9.1l-49.7-10.3L600.4,387l-116.5-24.2l-14.7-3.1l-0.6-0.1l-35.1-7.3
		c-11.4-3.4-9.4-14.3-3.1-23c5.3-7.4,13.6-13.2,19.3-11.6c10.9,3.1,14.5,15.7,15.2,18.9c-0.6-4.4-3.6-26.5,1.7-28.8
		c3.3-1.4,5.9,3.1,7.7,8.6c1.1,3.3,2,6.9,2.5,9.7c-1.7-12.5-3.2-43.5,23.8-46.6c0.9-0.1,1.8-0.2,2.7-0.2c0,0,0,0,0.1,0
		c3.1-0.1,6,0.3,8.5,1c0.1,0,0.2,0.1,0.3,0.1c0,0,0,0,0.1,0c21.1,6.6,22.3,40.6,21.7,56.1c-0.2,4.7-0.5,7.6-0.5,7.6
		s8-26.4,14.9-21.1c2.3,1.8-1.1,19-2.3,24.5c-0.2,1.1-0.4,1.8-0.4,1.8s1.7-6.3,5.4-4.8c3.1,1.3-0.9,13-2.2,16.5
		c1.3-2.9,5.5-11.8,12.1-19.5c0,0,0.1-0.1,0.1-0.1c7-8.2,16.7-15,28.4-11.3c20.1,6.4,8.9,32.3,3.8,42.1c-1.2,2.3-2,3.7-2,3.7
		s11.4-3.8,13.8-1c2.5,2.8-2.2,9.4-2.2,9.4l0.1,0l47.2,9.4l2.2,0.4c0,0,4.9-50,18-50.7c0.2-0.1,0.5-0.1,0.7,0
		c0.3,0.1,0.6,0.1,0.8,0.1l0.2,0c13.2,3.5-0.5,35-3,40.7c0.6-1.1,1.7-3.1,3.1-5.1c0,0,0.1-0.1,0.1-0.1c2.4-3.6,5.6-7.2,7.8-5.4
		c1.7,1.3,1.2,5,0,9c4.6-7.9,12.9-16.5,27.3-15.1c2.3,0.2,4.8,0.7,7.5,1.5c28.4,8.4,25.9,36,24.8,42.8c0.6-3.1,2.8-10,8.5-8.2
		C755.6,405.9,745.1,417.1,745.1,417.1z"/>
	<path class="st8" d="M512.4,280.5c0,0,0,0-0.2-0.1C512.3,280.4,512.3,280.4,512.4,280.5C512.4,280.5,512.4,280.5,512.4,280.5z"/>
	<path class="st26" d="M468.6,359.6l-35.1-7.3c-11.4-3.4-9.4-14.3-3.1-23C433.6,347.6,468.6,359.6,468.6,359.6z"/>
	<path class="st26" d="M602.8,384.5l0.1,0l-2.6,2.5l-116.5-24.2c-0.9-3-8.3-25.8-9.5-46.4c1.1,3.3,2,6.9,2.5,9.7
		c-1.7-12.5-3.2-43.5,23.8-46.6c0.9-0.1,1.8-0.2,2.7-0.2c-6.8,1.1-15.1,7.4-15.7,31.4c-1.1,41.4,38.1,58,38.1,58s4.1-18.4,8.3-32.3
		c-0.2,4.7-0.5,7.6-0.5,7.6s8-26.4,14.9-21.1c0,0-19.2,24.3-11.7,34.4c2.9,4,6.3-1.6,9.4-9.9c-0.2,1.1-0.4,1.8-0.4,1.8
		s1.7-6.3,5.4-4.8c3.1,1.3-0.9,13-2.2,16.5c1.3-2.9,5.5-11.8,12.1-19.5c-0.8,1.7-12.3,24.6-4.2,32.3c6.3,6,23.3,6.3,36.4-1.6
		c-1.2,2.3-2,3.7-2,3.7s11.4-3.8,13.8-1C607.4,377.9,602.8,384.5,602.8,384.5z"/>
	<path class="st26" d="M701.5,408l-49.7-10.3l-1.7-3.8l2.2,0.4c0,0,4.9-50,18-50.7c-7.3,1.1-15.8,36.9-8.3,44.5
		c1.9,1.9,4.3,0.3,6.8-3.2c1.1-1.5,2.2-3.4,3.4-5.6c0,0,0.1-0.1,0.1-0.1c2.4-3.6,5.6-7.2,7.8-5.4c1.7,1.3,1.2,5,0,9
		c4.6-7.9,12.9-16.5,27.3-15.1c-27.9,0.5-21,31.1-8.7,38.7C699.5,407,700.5,407.5,701.5,408z"/>
	
		<linearGradient id="SVGID_23_" gradientUnits="userSpaceOnUse" x1="777.3893" y1="-154.998" x2="773.4969" y2="-165.2159" gradientTransform="matrix(0.9884 0.152 0.152 -0.9884 -112.0657 113.5595)">
		<stop  offset="0" style="stop-color:#004E05"/>
		<stop  offset="0.4537" style="stop-color:#4E7E06"/>
		<stop  offset="1" style="stop-color:#ACB807"/>
	</linearGradient>
	<path class="st27" d="M650.2,393.9c0,0-5.7-0.1-15.1-0.1l-26.6-5.6L650.2,393.9z"/>
</g>
<g>
	
		<linearGradient id="SVGID_24_" gradientUnits="userSpaceOnUse" x1="1244.4862" y1="-515.3247" x2="1310.7728" y2="-15.5223" gradientTransform="matrix(1 0 0 -1 -97.66 398.26)">
		<stop  offset="0" style="stop-color:#004E05"/>
		<stop  offset="1" style="stop-color:#ACB807"/>
	</linearGradient>
	<path class="st28" d="M1511.2,421.3c-1.6-0.2-128.8-16.9-259.3-32.8c-32.6-4-65.3-7.9-96.4-11.5c-31.6-3.7-61.4-7-87.5-9.8
		c-21-2.2-39.6-4-54.8-5.3c-16.4-1.4-28.7-2.1-35.6-2c-3.1,0-6.2,0.1-9.5,0.3c-5.6,0.3-11.4,0.7-17.5,1.4c0,0,0,0,0,0
		c-4.7,0.5-9.6,1.1-14.5,1.7c-57,7.7-132.1,26.9-231.1,41.7c-0.7,0.1-1.5,0.2-2.2,0.3c-76.4-12-194-40-261.9-52.3
		c-16.9-3.1-30.7-5.2-40.1-5.8c-0.1,0-0.2,0-0.3,0c-10.4-0.6-32.2,0.7-60.9,3.3c-6.7,0.6-13.8,1.3-21.2,2.1
		c-21.7,2.2-46.3,4.9-72.2,8c-9.2,1.1-18.6,2.2-28.1,3.4C141.7,373.1,58,384.3,0,392.2v175.2h2408.7v-132
		C2100.4,433.1,1574.8,428.8,1511.2,421.3z"/>
	
		<linearGradient id="SVGID_25_" gradientUnits="userSpaceOnUse" x1="1889.4495" y1="-131.8861" x2="1890.7017" y2="-4.1538" gradientTransform="matrix(1 0 0 -1 -97.66 398.26)">
		<stop  offset="0" style="stop-color:#004E05"/>
		<stop  offset="1" style="stop-color:#ACB807"/>
	</linearGradient>
	<path class="st29" d="M2425.2,441.3l-12.4,34c0,0-44.5-12.3-160.5-12.3c-188,0-501.8,10.3-654.5-5.4c-201.9-20.8-379-64.3-437-79.5
		c31.1,3.6,63.9,7.5,96.4,11.5c87.3,19.3,222.3,45,377.6,59.5C1787.2,463.3,2425.2,441.3,2425.2,441.3z"/>
	
		<linearGradient id="SVGID_26_" gradientUnits="userSpaceOnUse" x1="1811.2676" y1="-262.9821" x2="1813.7681" y2="-7.9248" gradientTransform="matrix(1 0 0 -1 -97.66 398.26)">
		<stop  offset="0" style="stop-color:#004E05"/>
		<stop  offset="1" style="stop-color:#ACB807"/>
	</linearGradient>
	<path class="st30" d="M2413.9,499.8c-211.3-0.6-752.6-4.1-902.6-24.6c-197.8-27-362.9-80.1-438-107c-21-2.2-39.6-4-54.8-5.3
		l-1.2,1.2c0,0,222.3,86.4,469.3,123.5c163.3,24.5,725.4,50.1,927.3,58.7V499.8z"/>
</g>
</svg>
