<?xml version="1.0" encoding="utf-8"?>
<!-- Generator: Adobe Illustrator 17.0.0, SVG Export Plug-In . SVG Version: 6.00 Build 0)  -->
<!DOCTYPE svg PUBLIC "-//W3C//DTD SVG 1.1//EN" "http://www.w3.org/Graphics/SVG/1.1/DTD/svg11.dtd">
<svg version="1.1" id="Layer_1" xmlns="http://www.w3.org/2000/svg" xmlns:xlink="http://www.w3.org/1999/xlink" x="0px" y="0px"
	 width="400px" height="512px" viewBox="0 0 400 512" enable-background="new 0 0 400 512" xml:space="preserve">
<linearGradient id="SVGID_1_" gradientUnits="userSpaceOnUse" x1="226.9865" y1="38.1306" x2="198.7214" y2="617.5665" gradientTransform="matrix(1 0 0 1 -6.62 -204.62)">
	<stop  offset="0" style="stop-color:#2C9DFB"/>
	<stop  offset="0.1183" style="stop-color:#4DAFFC"/>
	<stop  offset="0.3257" style="stop-color:#82CCFD"/>
	<stop  offset="0.5059" style="stop-color:#A8E1FE"/>
	<stop  offset="0.65" style="stop-color:#BFEEFF"/>
	<stop  offset="0.7398" style="stop-color:#C8F3FF"/>
</linearGradient>
<rect x="-1" y="-2.8" fill="url(#SVGID_1_)" width="401.7" height="513.8"/>
<g>
	<g>
		<defs>
			<rect id="SVGID_2_" y="325" width="402" height="187"/>
		</defs>
		<clipPath id="SVGID_3_">
			<use xlink:href="#SVGID_2_"  overflow="visible"/>
		</clipPath>
		<g clip-path="url(#SVGID_3_)">
			<path fill="#E0E000" d="M458.1,441.8c-1,0.1-2.1,0.3-3.3,0.5c-4.2,0.6-9.3,1.3-14.9,2.1c-11.7,1.7-26.1,3.7-41.5,5.8
				c-8.3,1.2-17,2.4-25.7,3.6c-49.6,6.8-101.8,13.6-112.7,13.6c-21.8,0-132.1,2.7-132.1,2.7l12.3,13.6l156.6,3.3l15.9,0.3l66.7,1.4
				l21,0.4l57.6,1.2v-48.5H458.1z"/>
			<path fill="#4DC4AD" d="M315.7,477h0.1c0,0.7,0,1.1,0,1.1S315.8,477.7,315.7,477z"/>
			
				<linearGradient id="SVGID_4_" gradientUnits="userSpaceOnUse" x1="300.72" y1="669.72" x2="461.42" y2="669.72" gradientTransform="matrix(1 0 0 1 -6.62 -204.62)">
				<stop  offset="0" style="stop-color:#004E05"/>
				<stop  offset="0.4537" style="stop-color:#4E7E06"/>
				<stop  offset="1" style="stop-color:#ACB807"/>
			</linearGradient>
			<path opacity="0.12" fill="url(#SVGID_4_)" enable-background="new    " d="M454.8,442.3c-57.2,11.7-114.4,44.3-114.4,44.3
				l-27.6,0.8l-18.7,0.5l2.8-0.8L440,444.5C445.6,443.6,450.6,442.9,454.8,442.3z"/>
			
				<linearGradient id="SVGID_5_" gradientUnits="userSpaceOnUse" x1="356.72" y1="677.0699" x2="476.32" y2="677.0699" gradientTransform="matrix(1 0 0 1 -6.62 -204.62)">
				<stop  offset="0" style="stop-color:#004E05"/>
				<stop  offset="0.4537" style="stop-color:#4E7E06"/>
				<stop  offset="1" style="stop-color:#ACB807"/>
			</linearGradient>
			<path opacity="0.12" fill="url(#SVGID_5_)" enable-background="new    " d="M469.7,440.1L469.7,440.1
				c-31.6,18.1-58.3,39.8-69.3,49c-3.4,2.9-5.3,4.6-5.3,4.6l-45,11.1l29.2-16.2l87.1-48.1C468.6,440.3,469.7,440.1,469.7,440.1z"/>
			
				<linearGradient id="SVGID_6_" gradientUnits="userSpaceOnUse" x1="243.32" y1="672.22" x2="405.02" y2="672.22" gradientTransform="matrix(1 0 0 1 -6.62 -204.62)">
				<stop  offset="0" style="stop-color:#004E05"/>
				<stop  offset="0.4537" style="stop-color:#4E7E06"/>
				<stop  offset="1" style="stop-color:#ACB807"/>
			</linearGradient>
			<path opacity="0.12" fill="url(#SVGID_6_)" enable-background="new    " d="M398.4,450.2C331,463.4,272.3,485,272.3,485
				l-35.6-4.3l136-27C381.4,452.6,390.1,451.4,398.4,450.2z"/>
			<g>
				
					<linearGradient id="SVGID_7_" gradientUnits="userSpaceOnUse" x1="318.5657" y1="794.1588" x2="307.61" y2="739.0921" gradientTransform="matrix(0.9903 0.139 -0.139 0.9903 17.8321 -324.86)">
					<stop  offset="0" style="stop-color:#004E05"/>
					<stop  offset="1" style="stop-color:#ACB807"/>
				</linearGradient>
				<path fill="url(#SVGID_7_)" d="M233.1,477.3l-23.4-2c0,0-2.5-15.4,1.4-15.8c3.6-0.4,4.8,11.9,4.9,13.2c0-1,0.1-7.6,1.9-7.7
					c1.6-0.2,1.2,7.2,1,9.6l0,0c0,0.5-0.1,0.8-0.1,0.8L233.1,477.3z"/>
				
					<linearGradient id="SVGID_8_" gradientUnits="userSpaceOnUse" x1="345.4833" y1="788.8038" x2="334.5277" y2="733.7373" gradientTransform="matrix(0.9903 0.139 -0.139 0.9903 17.8321 -324.86)">
					<stop  offset="0" style="stop-color:#004E05"/>
					<stop  offset="1" style="stop-color:#ACB807"/>
				</linearGradient>
				<path fill="url(#SVGID_8_)" d="M264,475.7c-1,2.4-2.1,4.1-2.1,4.1l-28.9-2.5c0,0-0.2-0.8-0.5-2c-1.2-5.4-3.8-20.2,2.4-20.5
					c4.1-0.2,7,2.9,8.7,5.8l0,0c1.4,2.3,2.1,4.5,2.2,4.8c-0.1-0.5-1.3-7.7,1.7-7.4c3,0.3,0.2,14.8,0.2,14.8s0.7-3,2.2-5.9
					c2-3.9,5.5-7.8,10.9-5C267,465.1,265.7,471.5,264,475.7z"/>
				<path opacity="0.25" fill="#0F0FAC" enable-background="new    " d="M218.8,475.3l14.3,2l-14.6-1.3l0.4-1.5
					C218.8,475,218.8,475.3,218.8,475.3z"/>
				<path opacity="0.25" fill="#0F0FAC" enable-background="new    " d="M264,475.7c-1,2.4-2.1,4.1-2.1,4.1l-28.9-2.5
					c0,0-0.2-0.8-0.5-2c7,0.9,13.3-4.3,11.1-14.6c1.4,2.3,2.1,4.5,2.2,4.8c-0.1-0.5-1.3-7.7,1.7-7.4c3,0.3,0.2,14.8,0.2,14.8
					s0.7-3,2.2-5.9c-0.6,4.3-0.3,9.4,4.2,10.7C258.3,478.7,261.6,477.3,264,475.7z"/>
			</g>
			<path opacity="0.42" fill="#5C5700" enable-background="new    " d="M42.5,484.4l-1.3,3.7h-4.6c1.1-0.5,2.1-1.1,2.9-1.7
				C40.6,485.7,41.6,485,42.5,484.4z"/>
			
				<linearGradient id="SVGID_9_" gradientUnits="userSpaceOnUse" x1="-158.68" y1="749.52" x2="-158.68" y2="749.52" gradientTransform="matrix(1 0 0 1 -6.62 -204.62)">
				<stop  offset="0" style="stop-color:#004E05"/>
				<stop  offset="0.4537" style="stop-color:#4E7E06"/>
				<stop  offset="1" style="stop-color:#ACB807"/>
			</linearGradient>
			<path opacity="0.38" fill="url(#SVGID_9_)" enable-background="new    " d="M-165.3,544.9L-165.3,544.9L-165.3,544.9z"/>
			
				<linearGradient id="SVGID_10_" gradientUnits="userSpaceOnUse" x1="-158.68" y1="749.52" x2="-158.68" y2="749.52" gradientTransform="matrix(1 0 0 1 -6.62 -204.62)">
				<stop  offset="0" style="stop-color:#004E05"/>
				<stop  offset="0.4537" style="stop-color:#4E7E06"/>
				<stop  offset="1" style="stop-color:#ACB807"/>
			</linearGradient>
			<path opacity="0.38" fill="url(#SVGID_10_)" enable-background="new    " d="M-165.3,544.9L-165.3,544.9L-165.3,544.9z"/>
			<g>
				
					<linearGradient id="SVGID_11_" gradientUnits="userSpaceOnUse" x1="411.6149" y1="659.9066" x2="370.4057" y2="580.4979" gradientTransform="matrix(1 0 0 1 -6.62 -204.62)">
					<stop  offset="0" style="stop-color:#004E05"/>
					<stop  offset="1" style="stop-color:#ACB807"/>
				</linearGradient>
				<path fill="url(#SVGID_11_)" d="M374.3,411.1c0,0-1.6-9.2,1.7-11c3.3-1.7,0.9,8.8,0.9,8.8s1.5-5,3.2-5.8
					c1.6-0.9-3.3,11.8-3.3,11.8s6.3-11.7,8.6-12.1c1.5-0.2-7.7,10.7-7.7,10.7L374.3,411.1z"/>
				<g>
					
						<linearGradient id="SVGID_12_" gradientUnits="userSpaceOnUse" x1="360.2721" y1="686.5505" x2="319.063" y2="607.142" gradientTransform="matrix(1 0 0 1 -6.62 -204.62)">
						<stop  offset="0" style="stop-color:#004E05"/>
						<stop  offset="1" style="stop-color:#ACB807"/>
					</linearGradient>
					<path fill="url(#SVGID_12_)" d="M319.9,416.7c0,0-9-2.1-3.9-6.3c1.6-1.3,5.2,6.3,5.2,6.3s-2.6-6.3-1.3-6.3
						c1.3,0,1.3,8.4,1.3,8.4L319.9,416.7z"/>
					
						<linearGradient id="SVGID_13_" gradientUnits="userSpaceOnUse" x1="357.6648" y1="645.226" x2="358.04" y2="673.467" gradientTransform="matrix(1 0 0 1 -6.62 -204.62)">
						<stop  offset="0.0056" style="stop-color:#9F1D36"/>
						<stop  offset="0.9777" style="stop-color:#E06A39"/>
					</linearGradient>
					<path fill="url(#SVGID_13_)" d="M368.8,441c0,0,0,0.5,0,1.2v2.6c0,0.4-3.1,3.1-6.8,6.6c-5.7,5.3-13.1,12.3-13.8,15.1
						c-0.3,1.2-0.5,2.5-0.7,3.7c-0.1,1-0.2,2.1-0.3,3c-0.5,0-1,0-1.5,0c0.2-0.9,0.3-1.9,0.5-3c1-6,1.7-14-0.3-17.9
						c-0.8-1.5-1.8-2.9-3-4.1c-1.1-1.2-2.3-2.2-3.5-3.2c-0.7-0.6-1.4-1.1-2.1-1.5c-2.3-1.6-4-2.5-4-2.5h3.4c0,0,1,1.2,2.4,2.8
						c0.4,0.4,0.7,0.8,1.1,1.3c1,1.1,2,2.2,2.9,3.1c1.3,1.3,2.3,2.2,2.7,2.2c0.4,0,1-0.9,1.7-2s1.4-2.4,1.9-3.5
						c0.1-0.1,0.1-0.2,0.1-0.3c0.5-1,0.8-1.7,0.8-1.7h1.1c0,0-0.4,0.7-1,1.7c0,0.1-0.1,0.1-0.1,0.2c-0.6,1-1.3,2.4-2,3.7
						c-0.8,1.6-1.5,3.1-1.5,3.8c0,1.9,1.1,8.5,2.3,9.4c0.8,0.6,7.1-5.4,11.9-10.6c2.5-2.6,4.5-5.1,5.3-6.4c0.6-1,0.9-1.7,1.2-2.2
						c0-0.1,0.1-0.1,0.1-0.2c0.5-1.4-0.1-1.4-0.1-1.4L368.8,441L368.8,441z"/>
					
						<linearGradient id="SVGID_14_" gradientUnits="userSpaceOnUse" x1="379.0446" y1="676.8089" x2="337.8353" y2="597.4002" gradientTransform="matrix(1 0 0 1 -6.62 -204.62)">
						<stop  offset="0" style="stop-color:#004E05"/>
						<stop  offset="1" style="stop-color:#ACB807"/>
					</linearGradient>
					<path fill="url(#SVGID_14_)" d="M394.6,437.5c0,0-0.8,0.2-2.2,0.5l0,0c-5.7,1.2-21.7,4.2-37.6,5.1c-2.5,0.1-5.1,0.2-7.8,0.1
						c-17.7-0.5-37.1-5.3-38.6-5.7c-0.1,0-0.1,0-0.1,0s-4.3-29.1,46.6-29.1c13.1,0,22,2.1,28,5.2
						C399.4,421.9,394.6,437.5,394.6,437.5z"/>
					
						<linearGradient id="SVGID_15_" gradientUnits="userSpaceOnUse" x1="344.6486" y1="646.5983" x2="345.6013" y2="657.8768" gradientTransform="matrix(1 0 0 1 -6.62 -204.62)">
						<stop  offset="0" style="stop-color:#CB6566"/>
						<stop  offset="1" style="stop-color:#FFD5DD"/>
					</linearGradient>
					<path opacity="0.7" fill="url(#SVGID_15_)" enable-background="new    " d="M336.7,441c0,0,3.7,4.4,6.5,7.2c-0.1,0-0.2,0-0.3,0
						c-4.1-4.3-9.6-7.2-9.6-7.2H336.7z"/>
					
						<linearGradient id="SVGID_16_" gradientUnits="userSpaceOnUse" x1="355.981" y1="648.5251" x2="356.6282" y2="656.186" gradientTransform="matrix(1 0 0 1 -6.62 -204.62)">
						<stop  offset="0" style="stop-color:#CB6566"/>
						<stop  offset="1" style="stop-color:#FFD5DD"/>
					</linearGradient>
					<path opacity="0.7" fill="url(#SVGID_16_)" enable-background="new    " d="M350.4,442.8h1.1c0,0-1.8,2.9-3.1,5.6
						c-0.3,0-0.6-0.1-0.9-0.1C348.9,446.1,350.4,442.8,350.4,442.8z"/>
					
						<linearGradient id="SVGID_17_" gradientUnits="userSpaceOnUse" x1="371.3548" y1="647.5806" x2="372.5276" y2="661.4631" gradientTransform="matrix(1 0 0 1 -6.62 -204.62)">
						<stop  offset="0" style="stop-color:#CB6566"/>
						<stop  offset="1" style="stop-color:#FFD5DD"/>
					</linearGradient>
					<path opacity="0.7" fill="url(#SVGID_17_)" enable-background="new    " d="M368.8,441c0,0,0,2.8,0,3.8c0,0.4-3.1,3.1-6.8,6.6
						c-0.3-0.1-0.5-0.2-0.8-0.2c2.5-2.6,4.5-5.1,5.3-6.4c2.3-3.8,1.1-3.8,1.1-3.8H368.8z"/>
					
						<linearGradient id="SVGID_18_" gradientUnits="userSpaceOnUse" x1="359.4077" y1="652.9832" x2="350.5147" y2="612.6093" gradientTransform="matrix(1 0 0 1 -6.62 -204.62)">
						<stop  offset="0" style="stop-color:#004E05"/>
						<stop  offset="1" style="stop-color:#ACB807"/>
					</linearGradient>
					<path fill="url(#SVGID_18_)" d="M392.4,437.9c-0.1,0-0.2,0-0.3,0.1c-5.9,1.2-21.7,3.9-37.3,5.1c-2.4,0.2-4.6,0.3-6.8,0.4
						c-24.5,0.7-36.5-4.8-39.1-5.8l0,0c-0.1-0.1-0.3-0.1-0.4-0.1l0,0c0.6,0,1.3,0,2.1,0c7.4-0.6,13.2-0.6,18.4-0.4
						c13.6,0.7,22.7,3.4,43.6,2.6C379.9,439.4,386.5,438.8,392.4,437.9z"/>
					
						<linearGradient id="SVGID_19_" gradientUnits="userSpaceOnUse" x1="324.2372" y1="590.171" x2="379.9035" y2="664.5849" gradientTransform="matrix(1 0 0 1 -6.62 -204.62)">
						<stop  offset="0" style="stop-color:#004E05"/>
						<stop  offset="0.4537" style="stop-color:#4E7E06"/>
						<stop  offset="1" style="stop-color:#ACB807"/>
					</linearGradient>
					<path opacity="0.37" fill="url(#SVGID_19_)" enable-background="new    " d="M394.6,437.5c0,0-0.8,0.2-2.2,0.5l0,0
						c-0.1,0-0.2,0-0.3,0.1c-5.9,1.2-21.6,4.2-37.3,5.1l0,0h-0.1l0,0c-0.7,0-3.2,0.2-6.7,0.3c-24.5,0.7-36.5-4.8-39.1-5.8h0.1
						c8.6-0.5,17.2-0.5,20-0.5c0.6,0,0.9,0,0.9,0c50.4-0.8,65.3-12.8,53.4-23.3c-0.1-0.1-0.2-0.2-0.3-0.3
						C399.4,421.9,394.6,437.5,394.6,437.5z"/>
				</g>
				
					<linearGradient id="SVGID_20_" gradientUnits="userSpaceOnUse" x1="351.268" y1="683.5461" x2="347.4756" y2="676.6042" gradientTransform="matrix(1 0 0 1 -6.62 -204.62)">
					<stop  offset="0" style="stop-color:#AE5E59"/>
					<stop  offset="0.9946" style="stop-color:#FDB063"/>
				</linearGradient>
				<path fill="url(#SVGID_20_)" d="M349.2,474.2h-14.7l5.7-1.1c0,0,1.1-3.4,3.4-3.4l0,0c2.3,0,2.3,3.4,2.3,3.4s0-0.9,1.6-0.3
					c0.2,0.1,0.4,0.2,0.7,0.3C350.4,474.2,349.2,474.2,349.2,474.2z"/>
				
					<linearGradient id="SVGID_21_" gradientUnits="userSpaceOnUse" x1="351.3314" y1="683.2176" x2="353.2174" y2="664.1993" gradientTransform="matrix(1 0 0 1 -6.62 -204.62)">
					<stop  offset="0" style="stop-color:#F9CA7B"/>
					<stop  offset="1" style="stop-color:#CA5F4B"/>
				</linearGradient>
				<path opacity="0.7" fill="url(#SVGID_21_)" enable-background="new    " d="M347.4,472.7l-0.5,1.4h-2.3
					c-0.1-1.2-0.4-3.2-1.1-4.5l0,0c2.3,0,2.3,3.4,2.3,3.4S345.8,472.1,347.4,472.7z"/>
			</g>
			
				<linearGradient id="SVGID_22_" gradientUnits="userSpaceOnUse" x1="-158.68" y1="749.52" x2="-158.68" y2="749.52" gradientTransform="matrix(1 0 0 1 -6.62 -204.62)">
				<stop  offset="0" style="stop-color:#004E05"/>
				<stop  offset="0.4537" style="stop-color:#4E7E06"/>
				<stop  offset="1" style="stop-color:#ACB807"/>
			</linearGradient>
			<path fill="url(#SVGID_22_)" d="M-165.3,544.9L-165.3,544.9L-165.3,544.9z"/>
			
				<linearGradient id="SVGID_23_" gradientUnits="userSpaceOnUse" x1="115.8567" y1="757.9223" x2="115.7279" y2="757.6959" gradientTransform="matrix(1 0 0 1 -6.62 -204.62)">
				<stop  offset="0" style="stop-color:#FFAD3F"/>
				<stop  offset="0.11" style="stop-color:#FD9659"/>
				<stop  offset="0.2865" style="stop-color:#FB777D"/>
				<stop  offset="0.4646" style="stop-color:#F95F99"/>
				<stop  offset="0.6428" style="stop-color:#F74EAD"/>
				<stop  offset="0.8211" style="stop-color:#F643B9"/>
				<stop  offset="1" style="stop-color:#F640BD"/>
			</linearGradient>
			<path opacity="0.15" fill="url(#SVGID_23_)" enable-background="new    " d="M109.2,553c0,0.1-0.1,0.2-0.1,0.3
				C109.1,553.2,109.2,553.1,109.2,553z"/>
			<g>
				
					<linearGradient id="SVGID_24_" gradientUnits="userSpaceOnUse" x1="-10.8308" y1="773.2534" x2="6.8009" y2="708.2944" gradientTransform="matrix(0.9884 0.152 -0.152 0.9884 45.4074 -283.8181)">
					<stop  offset="0" style="stop-color:#004E05"/>
					<stop  offset="1" style="stop-color:#ACB807"/>
				</linearGradient>
				<path fill="url(#SVGID_24_)" d="M-26.7,468.8l-12.8-2.7l-14.6-3l-15.1-3.1l-34.1-7.1l-4.3-0.9h-0.2l-10.3-2.1
					c-3.3-1-2.7-4.2-0.9-6.7c1.5-2.2,4-3.9,5.7-3.4c3.2,0.9,4.2,4.6,4.5,5.5c-0.2-1.3-1.1-7.7,0.5-8.4c1-0.4,1.7,0.9,2.3,2.5
					c0.3,1,0.6,2,0.7,2.8c-0.5-3.7-0.9-12.7,7-13.7c0.3,0,0.5-0.1,0.8-0.1l0,0c0.9,0,1.7,0.1,2.5,0.3h0.1l0,0
					c6.2,1.9,6.5,11.9,6.4,16.4c-0.1,1.4-0.2,2.2-0.2,2.2s2.3-7.7,4.4-6.2c0.7,0.5-0.3,5.6-0.7,7.2c-0.1,0.3-0.1,0.5-0.1,0.5
					s0.5-1.8,1.6-1.4c0.9,0.4-0.3,3.8-0.6,4.8c0.4-0.9,1.6-3.5,3.5-5.7l0,0c2.1-2.4,4.9-4.4,8.3-3.3c5.9,1.9,2.6,9.5,1.1,12.3
					c-0.3,0.7-0.6,1.1-0.6,1.1s3.3-1.1,4-0.3c0.7,0.8-0.6,2.8-0.6,2.8l0,0l13.8,2.7l0.6,0.1c0,0,1.4-14.7,5.3-14.8
					c0.1,0,0.1,0,0.2,0c0.1,0,0.2,0,0.2,0h0.1c3.9,1-0.1,10.2-0.9,11.9c0.2-0.3,0.5-0.9,0.9-1.5l0,0c0.7-1.1,1.6-2.1,2.3-1.6
					c0.5,0.4,0.3,1.5,0,2.6c1.3-2.3,3.8-4.8,8-4.4c0.7,0.1,1.4,0.2,2.2,0.4c8.3,2.5,7.6,10.5,7.3,12.5c0.2-0.9,0.8-2.9,2.5-2.4
					C-23.6,465.6-26.7,468.8-26.7,468.8z"/>
				<path opacity="0.25" fill="#0F0FAC" enable-background="new    " d="M-94.9,428.8L-94.9,428.8L-94.9,428.8L-94.9,428.8z"/>
				<path opacity="0.13" fill="#0F0FAC" enable-background="new    " d="M-107.7,452l-10.3-2.1c-3.3-1-2.7-4.2-0.9-6.7
					C-118,448.5-107.7,452-107.7,452z"/>
				<path opacity="0.13" fill="#0F0FAC" enable-background="new    " d="M-68.4,459.3L-68.4,459.3l-0.7,0.7l-34.1-7.1
					c-0.3-0.9-2.4-7.6-2.8-13.6c0.3,1,0.6,2,0.7,2.8c-0.5-3.7-0.9-12.7,7-13.7c0.3,0,0.5-0.1,0.8-0.1c-2,0.3-4.4,2.2-4.6,9.2
					c-0.3,12.1,11.2,17,11.2,17s1.2-5.4,2.4-9.5c-0.1,1.4-0.2,2.2-0.2,2.2s2.3-7.7,4.4-6.2c0,0-5.6,7.1-3.4,10.1
					c0.9,1.2,1.9-0.5,2.8-2.9c-0.1,0.3-0.1,0.5-0.1,0.5s0.5-1.8,1.6-1.4c0.9,0.4-0.3,3.8-0.6,4.8c0.4-0.9,1.6-3.5,3.5-5.7
					c-0.2,0.5-3.6,7.2-1.2,9.5c1.9,1.8,6.8,1.8,10.7-0.5c-0.3,0.7-0.6,1.1-0.6,1.1s3.3-1.1,4-0.3C-67,457.4-68.4,459.3-68.4,459.3z"
					/>
				<path opacity="0.13" fill="#0F0FAC" enable-background="new    " d="M-39.5,466.2l-14.6-3l-0.5-1.1l0.6,0.1
					c0,0,1.4-14.7,5.3-14.8c-2.1,0.3-4.6,10.8-2.4,13c0.6,0.6,1.2,0.1,2-1c0.3-0.4,0.7-1,1-1.6l0,0c0.7-1.1,1.6-2.1,2.3-1.6
					c0.5,0.4,0.3,1.5,0,2.6c1.3-2.3,3.8-4.8,8-4.4c-8.2,0.1-6.2,9.1-2.6,11.3C-40.1,465.9-39.8,466-39.5,466.2z"/>
				
					<linearGradient id="SVGID_25_" gradientUnits="userSpaceOnUse" x1="9.1834" y1="750.5734" x2="8.0431" y2="753.5668" gradientTransform="matrix(0.9884 0.152 -0.152 0.9884 45.4074 -283.8181)">
					<stop  offset="0" style="stop-color:#004E05"/>
					<stop  offset="0.4537" style="stop-color:#4E7E06"/>
					<stop  offset="1" style="stop-color:#ACB807"/>
				</linearGradient>
				<path opacity="0.39" fill="url(#SVGID_25_)" enable-background="new    " d="M-54.5,462c0,0-1.7,0-4.4,0l-7.8-1.6L-54.5,462z"/>
			</g>
			<g>
				
					<linearGradient id="SVGID_26_" gradientUnits="userSpaceOnUse" x1="97.7533" y1="818.9452" x2="117.1725" y2="672.5242" gradientTransform="matrix(1 0 0 1 -6.62 -204.62)">
					<stop  offset="0" style="stop-color:#004E05"/>
					<stop  offset="1" style="stop-color:#ACB807"/>
				</linearGradient>
				<path fill="url(#SVGID_26_)" d="M197.7,470.1c-0.5-0.1-37.7-4.9-76-9.6c-9.5-1.2-19.1-2.3-28.2-3.4c-9.2-1.1-18-2.1-25.6-2.9
					c-6.2-0.6-11.6-1.2-16-1.6c-4.8-0.4-8.4-0.6-10.4-0.6c-0.9,0-1.8,0-2.8,0.1c-1.6,0.1-3.3,0.2-5.1,0.4l0,0
					c-1.4,0.1-2.8,0.3-4.3,0.5c-16.7,2.3-38.7,7.9-67.7,12.2c-0.2,0-0.4,0.1-0.7,0.1c-22.4-3.5-56.8-11.7-76.7-15.3
					c-5-0.9-9-1.5-11.7-1.7h-0.1c-3.1-0.2-9.4,0.2-17.8,1c-2,0.2-4,0.4-6.2,0.6c-6.4,0.6-13.6,1.4-21.1,2.3c-2.7,0.3-5.4,0.6-8.2,1
					c-22.4,2.7-46.9,6-63.9,8.3v51.3h705.6v-38.7C370.3,473.5,216.3,472.3,197.7,470.1z"/>
				
					<linearGradient id="SVGID_27_" gradientUnits="userSpaceOnUse" x1="286.6233" y1="706.5933" x2="286.9901" y2="669.1731" gradientTransform="matrix(1 0 0 1 -6.62 -204.62)">
					<stop  offset="0" style="stop-color:#004E05"/>
					<stop  offset="1" style="stop-color:#ACB807"/>
				</linearGradient>
				<path opacity="0.21" fill="url(#SVGID_27_)" enable-background="new    " d="M465.5,475.9l-3.6,9.9c0,0-13-3.6-47-3.6
					c-55.1,0-147,3-191.7-1.6c-59.1-6.1-111-18.8-128-23.3c9.1,1.1,18.7,2.2,28.2,3.4c25.6,5.7,65.1,13.2,110.6,17.4
					C278.6,482.4,465.5,475.9,465.5,475.9z"/>
				
					<linearGradient id="SVGID_28_" gradientUnits="userSpaceOnUse" x1="263.8271" y1="744.9999" x2="264.5596" y2="670.2789" gradientTransform="matrix(1 0 0 1 -6.62 -204.62)">
					<stop  offset="0" style="stop-color:#004E05"/>
					<stop  offset="1" style="stop-color:#ACB807"/>
				</linearGradient>
				<path opacity="0.21" fill="url(#SVGID_28_)" enable-background="new    " d="M462.2,493.1c-61.9-0.2-220.5-1.2-264.4-7.2
					c-57.9-7.9-106.3-23.5-128.3-31.4c-6.2-0.6-11.6-1.2-16-1.6l-0.3,0.3c0,0,65.1,25.3,137.5,36.2c47.9,7.2,212.5,14.7,271.7,17.2
					v-13.5H462.2z"/>
			</g>
		</g>
	</g>
</g>
<g id="mobileclouds">
	<g id="cloud">
		<path fill="#FFFFFF" d="M91.64,72.495c4.603,1.043,8.654,1.657,12.153,1.903c0.123,1.841,0.859,3.683,3.069,4.665
			c1.35,0.614,2.639,0.859,3.805,0.921c0.675,5.279,3.437,10.864,11.969,10.803c6.874-0.061,11.355-2.455,14.301-5.217
			c1.043,1.105,2.271,1.964,3.805,2.455c2.271,0.675,4.174,0.552,5.831-0.061c0.061,0.307,0.061,0.675,0.123,0.982
			c1.473,6.813,6.69,13.38,18.536,10.618c4.787-1.105,7.611-3.928,9.207-6.813c2.087,3.069,5.77,5.708,11.907,6.752
			c5.954,1.043,10.557-0.921,14.056-3.928c0.552,3.683,3.621,6.629,7.55,6.936c3.376,0.246,6.445-1.596,7.856-4.419
			c13.319,5.77,23.201-5.647,22.771-11.048c1.657,2.025,7.181,2.148,10.373,0.675c0.982-0.43,1.841-1.166,2.517-1.964
			c2.087,0.982,4.358,1.657,6.813,1.841c10.312,0.737,19.211-7.058,19.948-17.309c0.123-2.025-0.061-3.99-0.491-5.831
			c-1.903-7.611-8.532-13.503-16.818-14.117c-2.885-0.184-5.708,0.246-8.225,1.289c-1.78-2.885-5.524-7.181-12.889-8.47
			c-0.859-0.184-1.719-0.246-2.639-0.246c-1.903-7.12-8.163-12.583-15.897-13.074c-8.102-0.552-15.283,4.419-17.922,11.662
			c-1.043-0.614-2.271-1.043-3.683-1.228c-1.35-0.184-2.517-0.123-3.499,0.123c-1.166-1.964-3.008-3.499-5.217-4.174
			c-3.008-0.921-6.445-0.061-8.9,1.964c-1.719-4.419-5.892-7.672-10.925-8.041c-6.076-0.43-11.478,3.499-13.074,9.145
			c-5.34-2.21-9.452-0.123-11.846,2.148c-3.069,2.946-4.603,9.023-3.314,13.012c-3.867-1.043-6.936,1.35-6.199,5.279
			c-8.593-5.033-16.818-0.859-21.298,2.517c-0.061-0.061-0.123-0.184-0.184-0.246c-4.296-3.683-9.943-1.412-10.803,1.534
			c-8.593-3.437-17.063-1.964-25.84,3.13c-0.061,0.061-0.123,0.061-0.123,0.123C76.172,68.137,83.538,70.592,91.64,72.495z"/>
		<path fill="#CCE1F4" d="M91.64,72.495c4.603,1.043,8.654,1.657,12.153,1.903c0.123,1.841,0.859,3.683,3.069,4.665
			c1.35,0.614,2.639,0.859,3.805,0.921c0.675,5.279,3.437,10.864,11.969,10.803c6.874-0.061,11.355-2.455,14.301-5.217
			c1.043,1.105,2.271,1.964,3.805,2.455c2.271,0.675,4.174,0.552,5.831-0.061c0.061,0.307,0.061,0.675,0.123,0.982
			c1.473,6.813,6.69,13.38,18.536,10.618c4.787-1.105,7.611-3.928,9.207-6.813c2.087,3.069,5.77,5.708,11.907,6.752
			c5.954,1.043,10.557-0.921,14.056-3.928c0.552,3.683,3.621,6.629,7.55,6.936c3.376,0.246,6.445-1.596,7.856-4.419
			c13.319,5.77,23.201-5.647,22.771-11.048c1.657,2.025,7.181,2.148,10.373,0.675c0.982-0.43,1.841-1.166,2.517-1.964
			c2.087,0.982,4.358,1.657,6.813,1.841c10.312,0.737,19.211-7.058,19.948-17.309c0.123-2.025-0.061-3.99-0.491-5.831
			c-6.199-1.596-13.135-1.228-17.37,7.365c-2.946-5.831-8.409-5.156-9.882-1.166c-2.455-4.051-6.874-7.058-12.889-8.593
			c-6.138-1.596-10.741,1.35-13.81,4.296c0.061,0,0.184,0.061,0.246,0.061c10.925,3.867,9.943,14.608,9.943,14.608
			s-4.051-10.741-25.779-12.092c0,0,3.253-4.296,10.434-3.744c-2.394-3.683-6.383-6.383-11.109-6.936
			c-2.332-0.307-4.542-0.061-6.69,0.614c-0.061-0.614-0.123-1.228-0.246-1.78c-0.798-3.621-3.621-7.12-7.304-7.427
			c-6.261-0.552-11.662,5.34-10.987,13.135c0,0-7.12-2.148-11.846,8.961c0,0,1.043-8.163,6.261-12.767
			c-2.946-2.762-8.041-2.701-9.943-2.025c-4.419,1.534-5.892,4.788-6.138,7.979c0,0-3.744-2.639-6.936-1.166
			c-3.99,1.903-2.762,6.015-2.762,6.015c-5.647-1.596-7.979-2.578-11.109,4.788c5.647-1.78,11.478,0.307,15.283,5.033
			c-5.585-3.805-13.442-3.99-19.273-0.491c0.675-5.217-6.383-9.452-10.68-6.445c-0.675-4.665-5.892-7.611-10.557-6.69
			c-3.744,0.737-6.076,4.112-5.77,8.286c-2.762-6.874-10.127-5.156-19.887-5.892c-3.314-0.246-7.427-0.123-10.373-1.78
			C76.172,68.137,83.538,70.592,91.64,72.495z"/>
	</g>
	<g id="cloud_1_">
		<path fill="#FFFFFF" d="M222.24,152.07c-2.236-1.615-8.759-3.106-15.654-3.044c-5.777,0-16.896,3.106-16.896,3.106
			c-4.038-3.603-18.635-6.833-28.264,0.062c-2.609-7.268-12.983-10.187-18.884-5.342c2.05-10.187-5.777-21.369-16.026-22.797
			s-20.747,7.144-21.493,17.579c0.435-6.212-7.516-11.119-12.796-8.013c-0.932-9.007-9.815-16.399-18.76-15.716
			c-8.945,0.745-16.523,9.442-16.026,18.511c-2.982-5.28-10.249-7.641-15.716-5.094c-0.559,0.248-1.118,0.559-1.615,0.932
			c-1.242,0.87-2.298,1.988-3.106,3.292c-6.895-2.05-18.325-0.248-21.493,9.38c-0.621,1.926-0.808,3.851-0.683,5.529
			c0.062,0.745,0.186,1.429,0.373,2.112c-1.801,0-3.541,1.18-4.41,2.733c-1.056,1.864-1.056,4.1-0.559,6.15
			c0.932,3.789,3.665,7.019,7.206,8.634s7.827,1.491,11.243-0.311c2.671,4.721,7.827,7.703,13.231,8.324
			c5.342,0.683,10.871-0.808,15.529-3.479c-2.671,7.516,4.783,13.355,7.889,14.784c9.753,4.286,23.853,1.615,30.748-8.945
			c0,0,3.603,4.783,9.256,3.727c4.286-0.808,6.025-3.479,6.771-5.28c3.292,3.416,8.572,6.709,16.399,5.901
			c7.703-0.808,11.989-4.348,14.225-8.572c2.733,1.18,5.28,1.304,7.019,0.745c7.827-2.36,7.392-8.572,6.46-10.125
			c0.559,0.248,1.553,0.559,2.857,0.373c1.367-0.186,3.044-0.932,4.783-2.857c0.248,0.062,0.435,0.186,0.683,0.248
			c4.224,1.491,8.075,1.864,11.492,1.553c6.584-0.559,11.74-3.603,15.095-5.901c4.41-0.248,8.51-0.497,12.61-1.056
			c1.056-0.124,2.05-0.311,3.106-0.435c4.038-0.683,8.075-1.677,12.486-3.292c0.745-0.248,1.491-0.559,2.236-0.808
			C223.42,153.872,223.482,152.94,222.24,152.07z"/>
		<path fill="#CCE1F4" d="M221.557,154.617c-0.745,0.311-1.491,0.559-2.236,0.808c-4.41,1.615-8.51,2.609-12.486,3.292
			c-1.056,0.186-2.05,0.311-3.106,0.435c-4.1,0.559-8.2,0.808-12.61,1.056c-3.416,2.298-8.51,5.342-15.095,5.901
			c-3.417,0.311-7.268-0.062-11.492-1.553c-0.248-0.062-0.435-0.186-0.683-0.248c-1.739,1.926-3.416,2.671-4.783,2.857
			c-0.311-1.988-0.186-3.976,0.497-5.839c0-0.062,0-0.062,0.062-0.124c0.435-1.118,0.994-2.112,1.864-2.92
			c1.677-1.615,4.286-2.05,6.522-1.553c2.298,0.497,4.348,1.739,6.088,3.292c4.038-4.659,10.809-6.833,16.772-5.342
			c0.994,0.248,1.988,0.621,3.044,0.621c0.932,0,1.864-0.248,2.795-0.497c7.206-1.988,17.269-3.851,25.53-2.671
			C223.482,152.94,223.42,153.872,221.557,154.617z"/>
		<path fill="#CCE1F4" d="M159.563,161.326c-1.242,0.062-2.236,0.373-3.044,0.932c-3.416-1.615-7.454-1.864-10.995-0.559
			c1.304-3.913,5.653-6.522,9.69-5.777c-3.913-2.236-10.001-2.298-13.355,0.683c-1.056,0.932-2.423,3.23-2.423,3.23
			s-3.851-5.529-9.504-6.336c-3.354-0.497-8.759,1.056-11.368,5.218c-2.92-9.566-15.654-12.734-23.481-5.591
			c5.094-1.801,10.684-1.491,11.989,3.789c-4.41-2.298-10.622,0.435-11.927,5.28c-0.373-2.485-3.789-3.789-5.715-2.236
			c-0.994,0.87-1.304,2.298-0.932,3.541c-8.137-5.715-19.816-2.609-23.356,1.553c1.491-5.032,6.46-7.144,12.113-6.895
			c-6.15-4.845-15.157-6.212-21.679-1.926c2.609-3.541,0.994-9.318-2.92-11.305c-3.913-1.988-9.193-0.248-11.43,3.603
			c-2.236,3.789-1.429,9.069,1.553,12.299c-3.23-0.124-6.522,0.373-9.566,1.429c2.733,1.801,3.106,6.025,3.106,6.025
			c-4.783-5.963-11.989-5.591-11.989-5.591s1.864-1.677,6.088-1.242c-0.621-2.174-1.988-4.162-3.727-5.901
			c-2.92-2.92-7.268-3.106-11.492-3.044c-1.801,0-3.541,1.18-4.41,2.733c-1.056,1.864-1.056,4.1-0.559,6.15
			c0.932,3.789,3.665,7.019,7.206,8.634s7.827,1.491,11.243-0.311c2.671,4.721,7.827,7.703,13.231,8.324
			c5.342,0.683,10.871-0.808,15.529-3.479c-2.671,7.516,4.783,13.355,7.889,14.784c9.753,4.286,23.853,1.615,30.748-8.945
			c0,0,3.603,4.783,9.256,3.727c4.286-0.808,6.025-3.479,6.771-5.28c3.292,3.416,8.572,6.709,16.399,5.901
			c7.703-0.808,11.989-4.348,14.225-8.572c2.733,1.18,5.28,1.304,7.019,0.745c7.827-2.36,7.392-8.572,6.46-10.125
			c0.559,0.248,1.553,0.559,2.857,0.373c1.367-0.186,3.044-0.932,4.783-2.857c0.248,0.062,0.435,0.186,0.683,0.248
			c4.224,1.491,8.075,1.864,11.492,1.553C169.75,163.314,163.601,161.077,159.563,161.326z"/>
	</g>
	<g id="cloud_2_">
		<path fill="#FFFFFF" d="M100.652,236.878c0.303-1.949,0.043-4.633-1.169-6.755c-0.087-0.13-0.173-0.303-0.26-0.433
			c-1.732-2.901-5.543-4.72-9.786-3.637c-0.953-2.208-3.118-3.724-5.673-3.724c-0.953,0-1.862,0.217-2.641,0.606
			c-3.291-4.114-10.263-10.522-21.175-8.314c-10.826,2.208-15.892,13.25-15.892,13.25c-3.767-3.507-11.605-1.992-15.416,1.645
			c-4.027,3.811-3.94,6.712-3.94,6.712c-2.641-1.689-6.928,0-7.664,2.555c-0.563,2.035,0.217,4.07,2.079,5.11
			c0.13,0.043,0.217,0.087,0.346,0.173c3.551,1.775,5.759,0.779,5.759,0.779c4.244,9.137,12.255,6.755,15.935,4.893
			c1.169-0.563,3.507-1.602,3.507-1.602s6.582,6.236,15.719,6.582c5.456,0.217,14.766-2.641,16.931-7.621
			c9.786,5.629,27.064,1.299,29.316-4.287C107.58,240.602,106.714,235.232,100.652,236.878z"/>
		<path fill="#CCE1F4" d="M106.671,242.81c-2.252,5.629-19.529,9.916-29.316,4.287c-2.165,5.023-11.475,7.838-16.931,7.621
			c-9.137-0.346-15.719-6.582-15.719-6.582s-2.382,0.996-3.507,1.602c-3.681,1.862-11.692,4.244-15.935-4.893
			c0,0-2.208,0.953-5.759-0.779c-0.13-0.043-0.217-0.087-0.346-0.173c0.39-0.087,0.823-0.173,1.169-0.26
			c5.24-1.256,12.255-6.236,16.931-1.559c-0.043-3.637-3.724-6.149-7.188-5.716c1.559-2.208,4.633-3.161,7.188-2.252
			c2.598,0.909,4.417,3.724,4.2,6.452c2.988-1.429,5.586-1.775,8.834-1.212c3.291,0.606,5.413,2.641,6.755,5.673
			c-0.996-5.369-3.854-8.444-9.31-8.141c-0.173-3.074,0.173-5.153,2.035-7.621c1.862-2.468,5.153-3.984,8.098-3.161
			c2.988,0.823,5.11,4.287,3.984,7.188c0.476-0.736,2.208-1.169,3.248-0.476c0.823,0.563,0.996,2.079,0.823,2.728
			c0.823-2.382,3.291-4.07,5.803-3.941c2.512,0.13,4.85,2.035,5.456,4.46c0.39-4.547-3.897-8.92-8.487-8.574
			c6.322-3.507,14.853-1.212,15.805,6.019c2.468-8.054,13.25-6.409,14.939-3.378c1.212,2.165,1.559,5.153,1.169,6.755
			C106.714,235.232,107.58,240.602,106.671,242.81z"/>
	</g>
	<g id="cloud_3_">
		<path fill="#FFFFFF" d="M108.398,265.801c0,0.32,0,0.641,0.08,0.961c0.16,1.121,1.922,3.444,6.007,5.046
			c4.886,1.922,10.973,2.643,15.137-0.481c-0.32,2.723,2.723,4.485,5.286,5.446c2.723,1.041,5.446,2.162,8.41,2.243
			c2.883,0.16,6.007-0.881,7.689-3.204c2.403,4.165,8.49,5.606,12.494,3.043c2.483,3.524,7.368,5.126,11.453,3.764
			c4.085-1.362,6.968-5.687,6.728-10.011c2.243,1.201,5.526-0.881,5.286-3.444c2.243,2.002,6.087,1.522,8.089-0.641
			c2.002-2.243,2.323-5.687,1.201-8.41c-0.801-1.842-2.162-3.444-3.764-4.645c0.08-0.721,0-1.362-0.16-2.082
			c-0.16-0.641-0.4-1.281-0.801-1.842c-1.522-2.162-4.565-3.124-7.048-2.162c0.961-3.124-1.442-6.808-4.725-7.128
			c-3.124-0.32-6.087,2.723-5.927,5.847c-0.16-1.442-1.362-2.563-2.483-3.364c-2.803-2.002-5.126-0.16-5.606,0
			c-0.801-3.844-4.405-6.808-9.771-6.648c-5.286,0.16-8.65,3.684-8.97,7.208c-1.281-1.842-4.005-2.403-5.927-1.201
			c-1.842,1.201-2.563,3.924-1.522,5.847c-3.124-2.963-8.089-4.005-12.174-2.483c-4.085,1.522-7.128,5.526-7.529,9.851
			C116.247,256.27,108.158,258.432,108.398,265.801z"/>
		<path fill="#FFFFFF" d="M167.987,265.801c-1.362-0.08-2.723,0.32-3.844,1.041c-0.24,0.16-0.4,0.24-0.641,0.24
			s-0.481-0.24-0.641-0.481c-1.041-1.121-2.723-1.442-4.165-1.201c-1.522,0.24-2.883,0.881-4.245,1.602
			c0.24-1.522,0.481-3.124,1.602-4.165c0.961-0.881,2.403-1.201,3.684-0.881c1.281,0.32,2.403,1.201,3.124,2.243
			c0.24,0.32,0.481,0.721,0.881,0.721c0.24,0,0.481-0.08,0.721-0.24c2.002-1.041,4.485-1.041,6.487-0.08
			c2.002,0.961,3.524,2.963,3.925,5.126C174.474,268.444,169.188,265.961,167.987,265.801z"/>
		<path fill="#CCE1F4" d="M196.179,260.114c-0.801-1.842-2.162-3.444-3.764-4.645c-2.243-1.522-4.325-1.362-6.007-0.4
			c5.126,2.082,4.325,7.689,4.325,7.689c-1.442-4.165-3.684-5.366-5.606-6.007c-2.162-0.721-4.325-0.08-5.606,1.281
			c-0.961,1.041-1.041,2.643-0.641,4.005c-3.604-3.844-7.368-4.005-8.97-2.883c3.604,0.801,4.405,4.085,4.405,4.085
			c-9.291-4.485-14.416,0.16-14.416,0.16s0.32-4.565,6.648-4.805c-0.32-3.284-2.563-6.728-6.407-6.968
			c-4.725-0.32-8.65,3.043-8.41,8.089c-1.682-0.4-3.444,1.442-2.963,3.124c-1.201-0.961-2.403-1.922-3.924-2.162
			c-1.442-0.24-3.204,0.561-3.524,2.002c-2.082,0.24-3.764,2.243-3.524,4.325c-2.803-2.643-7.368-3.204-10.652-1.281
			c1.602-4.805,7.769-7.529,12.414-5.366c-0.08-3.364-3.444-6.327-6.888-6.007c-3.364,0.32-6.087,3.924-5.446,7.288
			c-2.403-0.721-5.206,1.842-4.565,4.325c-0.961-3.124-4.565-3.924-6.728-3.364c3.043,0.801,4.245,4.485,3.844,7.048
			c-0.961-2.323-4.005-7.128-11.213-3.844c0,0.32,0,0.641,0.08,0.961c0.16,1.121,1.922,3.444,6.007,5.046
			c4.886,1.922,10.973,2.643,15.137-0.481c-0.32,2.723,2.723,4.485,5.286,5.446c2.723,1.041,5.446,2.162,8.41,2.243
			c2.883,0.16,6.007-0.881,7.689-3.204c2.403,4.165,8.49,5.606,12.494,3.043c2.483,3.524,7.368,5.126,11.453,3.764
			c4.085-1.362,6.968-5.687,6.728-10.011c2.243,1.201,5.526-0.881,5.286-3.444c2.243,2.002,6.087,1.522,8.089-0.641
			C197.06,266.361,197.38,262.917,196.179,260.114z"/>
	</g>
</g>

</svg>
